<svg data-v-423bf9ae="" xmlns="http://www.w3.org/2000/svg" viewBox="0 0 337.91667194908894 60" class="font"><!----><!----><!----><g data-v-423bf9ae="" id="80020872-8bdb-47d9-9ea5-c3d7049e4a8b" fill="black" transform="matrix(5.952380997433594,0,0,5.952380997433594,-6.488093795825051,-18.75000118641627)"><path d="M1.43 13.09L1.43 13.09Q1.29 13.09 1.19 12.99L1.19 12.99L1.19 12.99Q1.09 12.89 1.09 12.75L1.09 12.75L1.09 3.64L1.09 3.64Q1.09 3.49 1.18 3.39L1.18 3.39L1.18 3.39Q1.27 3.29 1.43 3.29L1.43 3.29L2.56 3.29L2.56 3.29Q2.83 3.29 2.98 3.56L2.98 3.56L5.68 8.57L8.39 3.56L8.39 3.56Q8.54 3.29 8.81 3.29L8.81 3.29L9.93 3.29L9.93 3.29Q10.08 3.29 10.18 3.39L10.18 3.39L10.18 3.39Q10.28 3.49 10.28 3.64L10.28 3.64L10.28 12.75L10.28 12.75Q10.28 12.91 10.18 13.00L10.18 13.00L10.18 13.00Q10.08 13.09 9.93 13.09L9.93 13.09L8.72 13.09L8.72 13.09Q8.58 13.09 8.48 12.99L8.48 12.99L8.48 12.99Q8.39 12.89 8.39 12.75L8.39 12.75L8.39 6.73L6.44 10.43L6.44 10.43Q6.29 10.74 5.98 10.74L5.98 10.74L5.39 10.74L5.39 10.74Q5.10 10.74 4.91 10.43L4.91 10.43L2.97 6.73L2.97 12.75L2.97 12.75Q2.97 12.89 2.88 12.99L2.88 12.99L2.88 12.99Q2.79 13.09 2.63 13.09L2.63 13.09L1.43 13.09ZM12.54 13.09L12.54 13.09Q12.40 13.09 12.31 12.99L12.31 12.99L12.31 12.99Q12.21 12.89 12.21 12.75L12.21 12.75L12.21 11.34L12.21 11.34Q12.21 11.20 12.31 11.10L12.31 11.10L12.31 11.10Q12.40 11.00 12.54 11.00L12.54 11.00L13.96 11.00L13.96 11.00Q14.10 11.00 14.20 11.10L14.20 11.10L14.20 11.10Q14.29 11.20 14.29 11.34L14.29 11.34L14.29 12.75L14.29 12.75Q14.29 12.89 14.20 12.99L14.20 12.99L14.20 12.99Q14.11 13.09 13.96 13.09L13.96 13.09L12.54 13.09ZM20.01 13.23L20.01 13.23Q18.09 13.23 17.02 12.26L17.02 12.26L17.02 12.26Q15.96 11.30 15.90 9.39L15.90 9.39L15.90 9.39Q15.89 8.99 15.89 8.20L15.89 8.20L15.89 8.20Q15.89 7.41 15.90 7L15.90 7L15.90 7Q15.96 5.14 17.05 4.14L17.05 4.14L17.05 4.14Q18.14 3.15 20.01 3.15L20.01 3.15L20.01 3.15Q21.85 3.15 22.95 4.14L22.95 4.14L22.95 4.14Q24.05 5.14 24.11 7L24.11 7L24.11 7Q24.14 7.81 24.14 8.20L24.14 8.20L24.14 8.20Q24.14 8.58 24.11 9.39L24.11 9.39L24.11 9.39Q24.05 11.30 22.98 12.26L22.98 12.26L22.98 12.26Q21.91 13.23 20.01 13.23L20.01 13.23ZM20.01 11.61L20.01 11.61Q20.94 11.61 21.49 11.05L21.49 11.05L21.49 11.05Q22.04 10.49 22.08 9.32L22.08 9.32L22.08 9.32Q22.11 8.48 22.11 8.19L22.11 8.19L22.11 8.19Q22.11 7.87 22.08 7.06L22.08 7.06L22.08 7.06Q22.04 5.91 21.48 5.34L21.48 5.34L21.48 5.34Q20.92 4.77 20.01 4.77L20.01 4.77L20.01 4.77Q19.08 4.77 18.52 5.34L18.52 5.34L18.52 5.34Q17.96 5.91 17.93 7.06L17.93 7.06L17.93 7.06Q17.92 7.46 17.92 8.19L17.92 8.19L17.92 8.19Q17.92 8.90 17.93 9.32L17.93 9.32L17.93 9.32Q17.96 10.47 18.52 11.04L18.52 11.04L18.52 11.04Q19.07 11.61 20.01 11.61L20.01 11.61ZM26.04 13.09L26.04 13.09Q25.90 13.09 25.80 12.99L25.80 12.99L25.80 12.99Q25.70 12.89 25.70 12.75L25.70 12.75L25.70 11.34L25.70 11.34Q25.70 11.20 25.80 11.10L25.80 11.10L25.80 11.10Q25.90 11.00 26.04 11.00L26.04 11.00L27.45 11.00L27.45 11.00Q27.59 11.00 27.69 11.10L27.69 11.10L27.69 11.10Q27.79 11.20 27.79 11.34L27.79 11.34L27.79 12.75L27.79 12.75Q27.79 12.89 27.70 12.99L27.70 12.99L27.70 12.99Q27.61 13.09 27.45 13.09L27.45 13.09L26.04 13.09ZM33.14 13.23L33.14 13.23Q31.88 13.23 30.98 12.85L30.98 12.85L30.98 12.85Q30.09 12.47 29.62 11.86L29.62 11.86L29.62 11.86Q29.16 11.24 29.13 10.51L29.13 10.51L29.13 10.51Q29.13 10.40 29.22 10.31L29.22 10.31L29.22 10.31Q29.30 10.22 29.43 10.22L29.43 10.22L30.70 10.22L30.70 10.22Q30.86 10.22 30.95 10.29L30.95 10.29L30.95 10.29Q31.05 10.36 31.14 10.49L31.14 10.49L31.14 10.49Q31.28 10.96 31.77 11.28L31.77 11.28L31.77 11.28Q32.27 11.61 33.14 11.61L33.14 11.61L33.14 11.61Q34.12 11.61 34.62 11.28L34.62 11.28L34.62 11.28Q35.11 10.95 35.11 10.37L35.11 10.37L35.11 10.37Q35.11 10.00 34.86 9.74L34.86 9.74L34.86 9.74Q34.61 9.49 34.10 9.30L34.10 9.30L34.10 9.30Q33.59 9.11 32.58 8.85L32.58 8.85L32.58 8.85Q30.93 8.46 30.16 7.81L30.16 7.81L30.16 7.81Q29.39 7.17 29.39 5.96L29.39 5.96L29.39 5.96Q29.39 5.15 29.83 4.51L29.83 4.51L29.83 4.51Q30.28 3.88 31.12 3.51L31.12 3.51L31.12 3.51Q31.95 3.15 33.05 3.15L33.05 3.15L33.05 3.15Q34.22 3.15 35.06 3.56L35.06 3.56L35.06 3.56Q35.91 3.96 36.35 4.57L36.35 4.57L36.35 4.57Q36.79 5.18 36.82 5.78L36.82 5.78L36.82 5.78Q36.82 5.89 36.74 5.98L36.74 5.98L36.74 5.98Q36.65 6.08 36.53 6.08L36.53 6.08L35.20 6.08L35.20 6.08Q34.89 6.08 34.78 5.82L34.78 5.82L34.78 5.82Q34.71 5.38 34.23 5.07L34.23 5.07L34.23 5.07Q33.75 4.77 33.05 4.77L33.05 4.77L33.05 4.77Q32.28 4.77 31.84 5.07L31.84 5.07L31.84 5.07Q31.40 5.36 31.40 5.92L31.40 5.92L31.40 5.92Q31.40 6.30 31.63 6.55L31.63 6.55L31.63 6.55Q31.85 6.80 32.33 6.99L32.33 6.99L32.33 6.99Q32.80 7.18 33.71 7.42L33.71 7.42L33.71 7.42Q34.96 7.70 35.69 8.05L35.69 8.05L35.69 8.05Q36.43 8.40 36.78 8.93L36.78 8.93L36.78 8.93Q37.13 9.46 37.13 10.29L37.13 10.29L37.13 10.29Q37.13 11.20 36.63 11.87L36.63 11.87L36.63 11.87Q36.13 12.53 35.23 12.88L35.23 12.88L35.23 12.88Q34.33 13.23 33.14 13.23L33.14 13.23ZM38.81 13.09L38.81 13.09Q38.67 13.09 38.57 12.99L38.57 12.99L38.57 12.99Q38.47 12.89 38.47 12.75L38.47 12.75L38.47 11.34L38.47 11.34Q38.47 11.20 38.57 11.10L38.57 11.10L38.57 11.10Q38.67 11.00 38.81 11.00L38.81 11.00L40.22 11.00L40.22 11.00Q40.36 11.00 40.46 11.10L40.46 11.10L40.46 11.10Q40.56 11.20 40.56 11.34L40.56 11.34L40.56 12.75L40.56 12.75Q40.56 12.89 40.47 12.99L40.47 12.99L40.47 12.99Q40.38 13.09 40.22 13.09L40.22 13.09L38.81 13.09ZM42.83 13.09L42.83 13.09Q42.69 13.09 42.59 12.99L42.59 12.99L42.59 12.99Q42.49 12.89 42.49 12.75L42.49 12.75L42.49 3.63L42.49 3.63Q42.49 3.47 42.59 3.38L42.59 3.38L42.59 3.38Q42.69 3.29 42.83 3.29L42.83 3.29L44.17 3.29L44.17 3.29Q44.32 3.29 44.42 3.38L44.42 3.38L44.42 3.38Q44.51 3.47 44.51 3.63L44.51 3.63L44.51 12.75L44.51 12.75Q44.51 12.89 44.42 12.99L44.42 12.99L44.42 12.99Q44.32 13.09 44.17 13.09L44.17 13.09L42.83 13.09ZM46.77 13.09L46.77 13.09Q46.63 13.09 46.54 12.99L46.54 12.99L46.54 12.99Q46.44 12.89 46.44 12.75L46.44 12.75L46.44 11.34L46.44 11.34Q46.44 11.20 46.54 11.10L46.54 11.10L46.54 11.10Q46.63 11.00 46.77 11.00L46.77 11.00L48.19 11.00L48.19 11.00Q48.33 11.00 48.43 11.10L48.43 11.10L48.43 11.10Q48.52 11.20 48.52 11.34L48.52 11.34L48.52 12.75L48.52 12.75Q48.52 12.89 48.43 12.99L48.43 12.99L48.43 12.99Q48.34 13.09 48.19 13.09L48.19 13.09L46.77 13.09ZM53.87 13.23L53.87 13.23Q52.61 13.23 51.72 12.85L51.72 12.85L51.72 12.85Q50.82 12.47 50.36 11.86L50.36 11.86L50.36 11.86Q49.90 11.24 49.87 10.51L49.87 10.51L49.87 10.51Q49.87 10.40 49.95 10.31L49.95 10.31L49.95 10.31Q50.04 10.22 50.16 10.22L50.16 10.22L51.44 10.22L51.44 10.22Q51.59 10.22 51.69 10.29L51.69 10.29L51.69 10.29Q51.79 10.36 51.87 10.49L51.87 10.49L51.87 10.49Q52.01 10.96 52.51 11.28L52.51 11.28L52.51 11.28Q53.00 11.61 53.87 11.61L53.87 11.61L53.87 11.61Q54.85 11.61 55.35 11.28L55.35 11.28L55.35 11.28Q55.85 10.95 55.85 10.37L55.85 10.37L55.85 10.37Q55.85 10.00 55.59 9.74L55.59 9.74L55.59 9.74Q55.34 9.49 54.83 9.30L54.83 9.30L54.83 9.30Q54.32 9.11 53.31 8.85L53.31 8.85L53.31 8.85Q51.66 8.46 50.89 7.81L50.89 7.81L50.89 7.81Q50.12 7.17 50.12 5.96L50.12 5.96L50.12 5.96Q50.12 5.15 50.57 4.51L50.57 4.51L50.57 4.51Q51.02 3.88 51.85 3.51L51.85 3.51L51.85 3.51Q52.68 3.15 53.79 3.15L53.79 3.15L53.79 3.15Q54.95 3.15 55.80 3.56L55.80 3.56L55.80 3.56Q56.64 3.96 57.09 4.57L57.09 4.57L57.09 4.57Q57.53 5.18 57.55 5.78L57.55 5.78L57.55 5.78Q57.55 5.89 57.47 5.98L57.47 5.98L57.47 5.98Q57.39 6.08 57.26 6.08L57.26 6.08L55.93 6.08L55.93 6.08Q55.62 6.08 55.51 5.82L55.51 5.82L55.51 5.82Q55.44 5.38 54.96 5.07L54.96 5.07L54.96 5.07Q54.49 4.77 53.79 4.77L53.79 4.77L53.79 4.77Q53.02 4.77 52.58 5.07L52.58 5.07L52.58 5.07Q52.14 5.36 52.14 5.92L52.14 5.92L52.14 5.92Q52.14 6.30 52.36 6.55L52.36 6.55L52.36 6.55Q52.58 6.80 53.06 6.99L53.06 6.99L53.06 6.99Q53.54 7.18 54.45 7.42L54.45 7.42L54.45 7.42Q55.69 7.70 56.43 8.05L56.43 8.05L56.43 8.05Q57.16 8.40 57.51 8.93L57.51 8.93L57.51 8.93Q57.86 9.46 57.86 10.29L57.86 10.29L57.86 10.29Q57.86 11.20 57.37 11.87L57.37 11.87L57.37 11.87Q56.87 12.53 55.97 12.88L55.97 12.88L55.97 12.88Q55.06 13.23 53.87 13.23L53.87 13.23Z"></path></g><!----><!----></svg>