<?xml version="1.0" encoding="us-ascii" standalone="no"?><svg xmlns="http://www.w3.org/2000/svg" xmlns:xlink="http://www.w3.org/1999/xlink" contentStyleType="text/css" height="1298px" preserveAspectRatio="none" style="width:728px;height:1298px;background:#FFFFFF;" version="1.1" viewBox="0 0 728 1298" width="728px" zoomAndPan="magnify"><defs/><g><ellipse cx="355" cy="20" fill="#222222" rx="10" ry="10" style="stroke:#222222;stroke-width:1.0;"/><rect fill="#F1F1F1" height="33.9688" rx="12.5" ry="12.5" style="stroke:#181818;stroke-width:0.5;" width="68" x="321" y="50"/><text fill="#000000" font-family="sans-serif" font-size="12" lengthAdjust="spacing" textLength="48" x="331" y="71.1387">Start-up</text><polygon fill="#F1F1F1" points="302,103.9688,408,103.9688,420,115.9688,408,127.9688,302,127.9688,290,115.9688,302,103.9688" style="stroke:#181818;stroke-width:0.5;"/><text fill="#000000" font-family="sans-serif" font-size="11" lengthAdjust="spacing" textLength="106" x="302" y="119.7769">Diagnostic Routine</text><text fill="#000000" font-family="sans-serif" font-size="11" lengthAdjust="spacing" textLength="51" x="239" y="113.3745">No Errors</text><text fill="#000000" font-family="sans-serif" font-size="11" lengthAdjust="spacing" textLength="32" x="420" y="113.3745">Errors</text><rect fill="#F1F1F1" height="33.9688" rx="12.5" ry="12.5" style="stroke:#181818;stroke-width:0.5;" width="170" x="195" y="137.9688"/><text fill="#000000" font-family="sans-serif" font-size="12" lengthAdjust="spacing" textLength="150" x="205" y="159.1074">Continue with Application</text><rect fill="#F1F1F1" height="33.9688" rx="12.5" ry="12.5" style="stroke:#181818;stroke-width:0.5;" width="79" x="390.5" y="137.9688"/><text fill="#000000" font-family="sans-serif" font-size="12" lengthAdjust="spacing" textLength="59" x="400.5" y="159.1074">Shutdown</text><ellipse cx="430" cy="202.9375" fill="none" rx="11" ry="11" style="stroke:#222222;stroke-width:1.0;"/><ellipse cx="430" cy="202.9375" fill="#222222" rx="6" ry="6" style="stroke:#222222;stroke-width:1.0;"/><rect fill="#F1F1F1" height="33.9688" rx="12.5" ry="12.5" style="stroke:#181818;stroke-width:0.5;" width="139" x="285.5" y="233.9375"/><text fill="#000000" font-family="sans-serif" font-size="12" lengthAdjust="spacing" textLength="119" x="295.5" y="255.0762">U.I loads Main Menu</text><rect fill="#F1F1F1" height="33.9688" rx="12.5" ry="12.5" style="stroke:#181818;stroke-width:0.5;" width="120" x="295" y="331.9063"/><text fill="#000000" font-family="sans-serif" font-size="12" lengthAdjust="spacing" textLength="100" x="305" y="353.0449">Show Main Menu</text><rect fill="#F1F1F1" height="33.9688" rx="12.5" ry="12.5" style="stroke:#181818;stroke-width:0.5;" width="264" x="336.5" y="409.875"/><text fill="#000000" font-family="sans-serif" font-size="12" lengthAdjust="spacing" textLength="244" x="346.5" y="431.0137">U.I shows Study Profile Selection Screen</text><rect fill="#F1F1F1" height="33.9688" rx="12.5" ry="12.5" style="stroke:#181818;stroke-width:0.5;" width="137" x="400" y="463.8438"/><text fill="#000000" font-family="sans-serif" font-size="12" lengthAdjust="spacing" textLength="117" x="410" y="484.9824">Select Study Profile</text><rect fill="#F1F1F1" height="33.9688" rx="12.5" ry="12.5" style="stroke:#181818;stroke-width:0.5;" width="381" x="278" y="517.8125"/><text fill="#000000" font-family="sans-serif" font-size="12" lengthAdjust="spacing" textLength="361" x="288" y="538.9512">U.I shows Live preview of cameras and sensors information</text><rect fill="#F1F1F1" height="33.9688" rx="12.5" ry="12.5" style="stroke:#181818;stroke-width:0.5;" width="207" x="450" y="639.7813"/><text fill="#000000" font-family="sans-serif" font-size="12" lengthAdjust="spacing" textLength="187" x="460" y="660.9199">U.I shows ISO adjusting screen</text><rect fill="#F1F1F1" height="33.9688" rx="12.5" ry="12.5" style="stroke:#181818;stroke-width:0.5;" width="269" x="419" y="717.75"/><text fill="#000000" font-family="sans-serif" font-size="12" lengthAdjust="spacing" textLength="249" x="429" y="738.8887">U.I shows Aperture Size adjusting screen</text><rect fill="#F1F1F1" height="33.9688" rx="12.5" ry="12.5" style="stroke:#181818;stroke-width:0.5;" width="273" x="417" y="795.7188"/><text fill="#000000" font-family="sans-serif" font-size="12" lengthAdjust="spacing" textLength="253" x="427" y="816.8574">U.I shows Shutter Speed adjusting screen</text><rect fill="#F1F1F1" height="33.9688" rx="12.5" ry="12.5" style="stroke:#181818;stroke-width:0.5;" width="265" x="421" y="873.6875"/><text fill="#000000" font-family="sans-serif" font-size="12" lengthAdjust="spacing" textLength="245" x="431" y="894.8262">U.I shows whiteBalance adjusting screen</text><rect fill="#F1F1F1" height="33.9688" rx="12.5" ry="12.5" style="stroke:#181818;stroke-width:0.5;" width="250" x="428.5" y="951.6563"/><text fill="#000000" font-family="sans-serif" font-size="12" lengthAdjust="spacing" textLength="230" x="438.5" y="972.7949">U.I shows sensors calibration screens</text><polygon fill="#F1F1F1" points="291,615.7813,359,615.7813,371,627.7813,359,639.7813,291,639.7813,279,627.7813,291,615.7813" style="stroke:#181818;stroke-width:0.5;"/><text fill="#000000" font-family="sans-serif" font-size="11" lengthAdjust="spacing" textLength="68" x="291" y="631.5894">Change ISO</text><text fill="#000000" font-family="sans-serif" font-size="11" lengthAdjust="spacing" textLength="21" x="371" y="625.187">Yes</text><polygon fill="#F1F1F1" points="261,693.75,389,693.75,401,705.75,389,717.75,261,717.75,249,705.75,261,693.75" style="stroke:#181818;stroke-width:0.5;"/><text fill="#000000" font-family="sans-serif" font-size="11" lengthAdjust="spacing" textLength="128" x="261" y="709.5581">Change Aperture Size</text><text fill="#000000" font-family="sans-serif" font-size="11" lengthAdjust="spacing" textLength="21" x="401" y="703.1558">Yes</text><polygon fill="#F1F1F1" points="259,771.7188,391,771.7188,403,783.7188,391,795.7188,259,795.7188,247,783.7188,259,771.7188" style="stroke:#181818;stroke-width:0.5;"/><text fill="#000000" font-family="sans-serif" font-size="11" lengthAdjust="spacing" textLength="132" x="259" y="787.5269">Change Shutter Speed</text><text fill="#000000" font-family="sans-serif" font-size="11" lengthAdjust="spacing" textLength="21" x="403" y="781.1245">Yes</text><polygon fill="#F1F1F1" points="262.5,849.6875,387.5,849.6875,399.5,861.6875,387.5,873.6875,262.5,873.6875,250.5,861.6875,262.5,849.6875" style="stroke:#181818;stroke-width:0.5;"/><text fill="#000000" font-family="sans-serif" font-size="11" lengthAdjust="spacing" textLength="125" x="262.5" y="865.4956">Change whiteBalance</text><text fill="#000000" font-family="sans-serif" font-size="11" lengthAdjust="spacing" textLength="21" x="399.5" y="859.0933">Yes</text><polygon fill="#F1F1F1" points="275.5,927.6563,374.5,927.6563,386.5,939.6563,374.5,951.6563,275.5,951.6563,263.5,939.6563,275.5,927.6563" style="stroke:#181818;stroke-width:0.5;"/><text fill="#000000" font-family="sans-serif" font-size="11" lengthAdjust="spacing" textLength="99" x="275.5" y="943.4644">Calibrate sensors</text><text fill="#000000" font-family="sans-serif" font-size="11" lengthAdjust="spacing" textLength="21" x="386.5" y="937.062">yes</text><polygon fill="#F1F1F1" points="468.5,1024.625,480.5,1036.625,468.5,1048.625,456.5,1036.625,468.5,1024.625" style="stroke:#181818;stroke-width:0.5;"/><rect fill="#F1F1F1" height="33.9688" rx="12.5" ry="12.5" style="stroke:#181818;stroke-width:0.5;" width="137" x="400" y="1092.625"/><text fill="#000000" font-family="sans-serif" font-size="12" lengthAdjust="spacing" textLength="117" x="410" y="1113.7637">Start Study Capture</text><rect fill="#F1F1F1" height="33.9688" rx="12.5" ry="12.5" style="stroke:#181818;stroke-width:0.5;" width="216" x="360.5" y="1146.5938"/><text fill="#000000" font-family="sans-serif" font-size="12" lengthAdjust="spacing" textLength="196" x="370.5" y="1167.7324">Data is backed up into Database</text><polygon fill="#F1F1F1" points="64.5,385.875,188.5,385.875,200.5,397.875,188.5,409.875,64.5,409.875,52.5,397.875,64.5,385.875" style="stroke:#181818;stroke-width:0.5;"/><text fill="#000000" font-family="sans-serif" font-size="11" lengthAdjust="spacing" textLength="124" x="64.5" y="401.6831">Study Button pressed</text><text fill="#000000" font-family="sans-serif" font-size="11" lengthAdjust="spacing" textLength="21" x="200.5" y="395.2808">yes</text><polygon fill="#F1F1F1" points="32,571.7813,221,571.7813,233,583.7813,221,595.7813,32,595.7813,20,583.7813,32,571.7813" style="stroke:#181818;stroke-width:0.5;"/><text fill="#000000" font-family="sans-serif" font-size="11" lengthAdjust="spacing" textLength="189" x="32" y="587.5894">Menu List Screen button pressed</text><text fill="#000000" font-family="sans-serif" font-size="11" lengthAdjust="spacing" textLength="21" x="233" y="581.187">yes</text><polygon fill="#F1F1F1" points="59,1068.625,194,1068.625,206,1080.625,194,1092.625,59,1092.625,47,1080.625,59,1068.625" style="stroke:#181818;stroke-width:0.5;"/><text fill="#000000" font-family="sans-serif" font-size="11" lengthAdjust="spacing" textLength="135" x="59" y="1084.4331">Capture button pressed</text><text fill="#000000" font-family="sans-serif" font-size="11" lengthAdjust="spacing" textLength="21" x="206" y="1078.0308">yes</text><polygon fill="#F1F1F1" points="355,1218.5625,367,1230.5625,355,1242.5625,343,1230.5625,355,1218.5625" style="stroke:#181818;stroke-width:0.5;"/><polygon fill="#F1F1F1" points="355,287.9063,367,299.9063,355,311.9063,343,299.9063,355,287.9063" style="stroke:#181818;stroke-width:0.5;"/><polygon fill="#F1F1F1" points="300.5,1262.5625,409.5,1262.5625,421.5,1274.5625,409.5,1286.5625,300.5,1286.5625,288.5,1274.5625,300.5,1262.5625" style="stroke:#181818;stroke-width:0.5;"/><text fill="#000000" font-family="sans-serif" font-size="11" lengthAdjust="spacing" textLength="109" x="300.5" y="1278.3706">Button not pressed</text><text fill="#000000" font-family="sans-serif" font-size="11" lengthAdjust="spacing" textLength="21" x="421.5" y="1271.9683">yes</text><line style="stroke:#181818;stroke-width:1.0;" x1="355" x2="355" y1="30" y2="50"/><polygon fill="#181818" points="351,40,355,50,359,40,355,44" style="stroke:#181818;stroke-width:1.0;"/><line style="stroke:#181818;stroke-width:1.0;" x1="430" x2="430" y1="171.9375" y2="191.9375"/><polygon fill="#181818" points="426,181.9375,430,191.9375,434,181.9375,430,185.9375" style="stroke:#181818;stroke-width:1.0;"/><line style="stroke:#181818;stroke-width:1.0;" x1="290" x2="280" y1="115.9688" y2="115.9688"/><line style="stroke:#181818;stroke-width:1.0;" x1="280" x2="280" y1="115.9688" y2="137.9688"/><polygon fill="#181818" points="276,127.9688,280,137.9688,284,127.9688,280,131.9688" style="stroke:#181818;stroke-width:1.0;"/><line style="stroke:#181818;stroke-width:1.0;" x1="420" x2="430" y1="115.9688" y2="115.9688"/><line style="stroke:#181818;stroke-width:1.0;" x1="430" x2="430" y1="115.9688" y2="137.9688"/><polygon fill="#181818" points="426,127.9688,430,137.9688,434,127.9688,430,131.9688" style="stroke:#181818;stroke-width:1.0;"/><line style="stroke:#181818;stroke-width:1.0;" x1="280" x2="280" y1="171.9375" y2="218.9375"/><line style="stroke:#181818;stroke-width:1.0;" x1="280" x2="355" y1="218.9375" y2="218.9375"/><line style="stroke:#181818;stroke-width:1.0;" x1="355" x2="355" y1="218.9375" y2="233.9375"/><polygon fill="#181818" points="351,223.9375,355,233.9375,359,223.9375,355,227.9375" style="stroke:#181818;stroke-width:1.0;"/><line style="stroke:#181818;stroke-width:1.0;" x1="355" x2="355" y1="83.9688" y2="103.9688"/><polygon fill="#181818" points="351,93.9688,355,103.9688,359,93.9688,355,97.9688" style="stroke:#181818;stroke-width:1.0;"/><line style="stroke:#181818;stroke-width:1.0;" x1="468.5" x2="468.5" y1="443.8438" y2="463.8438"/><polygon fill="#181818" points="464.5,453.8438,468.5,463.8438,472.5,453.8438,468.5,457.8438" style="stroke:#181818;stroke-width:1.0;"/><line style="stroke:#181818;stroke-width:1.0;" x1="468.5" x2="468.5" y1="497.8125" y2="517.8125"/><polygon fill="#181818" points="464.5,507.8125,468.5,517.8125,472.5,507.8125,468.5,511.8125" style="stroke:#181818;stroke-width:1.0;"/><line style="stroke:#181818;stroke-width:1.0;" x1="371" x2="553.5" y1="627.7813" y2="627.7813"/><line style="stroke:#181818;stroke-width:1.0;" x1="553.5" x2="553.5" y1="627.7813" y2="639.7813"/><polygon fill="#181818" points="549.5,629.7813,553.5,639.7813,557.5,629.7813,553.5,633.7813" style="stroke:#181818;stroke-width:1.0;"/><line style="stroke:#181818;stroke-width:1.0;" x1="401" x2="553.5" y1="705.75" y2="705.75"/><line style="stroke:#181818;stroke-width:1.0;" x1="553.5" x2="553.5" y1="705.75" y2="717.75"/><polygon fill="#181818" points="549.5,707.75,553.5,717.75,557.5,707.75,553.5,711.75" style="stroke:#181818;stroke-width:1.0;"/><line style="stroke:#181818;stroke-width:1.0;" x1="403" x2="553.5" y1="783.7188" y2="783.7188"/><line style="stroke:#181818;stroke-width:1.0;" x1="553.5" x2="553.5" y1="783.7188" y2="795.7188"/><polygon fill="#181818" points="549.5,785.7188,553.5,795.7188,557.5,785.7188,553.5,789.7188" style="stroke:#181818;stroke-width:1.0;"/><line style="stroke:#181818;stroke-width:1.0;" x1="399.5" x2="553.5" y1="861.6875" y2="861.6875"/><line style="stroke:#181818;stroke-width:1.0;" x1="553.5" x2="553.5" y1="861.6875" y2="873.6875"/><polygon fill="#181818" points="549.5,863.6875,553.5,873.6875,557.5,863.6875,553.5,867.6875" style="stroke:#181818;stroke-width:1.0;"/><line style="stroke:#181818;stroke-width:1.0;" x1="386.5" x2="553.5" y1="939.6563" y2="939.6563"/><line style="stroke:#181818;stroke-width:1.0;" x1="553.5" x2="553.5" y1="939.6563" y2="951.6563"/><polygon fill="#181818" points="549.5,941.6563,553.5,951.6563,557.5,941.6563,553.5,945.6563" style="stroke:#181818;stroke-width:1.0;"/><line style="stroke:#181818;stroke-width:1.0;" x1="325" x2="325" y1="639.7813" y2="693.75"/><polygon fill="#181818" points="321,683.75,325,693.75,329,683.75,325,687.75" style="stroke:#181818;stroke-width:1.0;"/><text fill="#000000" font-family="sans-serif" font-size="11" lengthAdjust="spacing" textLength="14" x="325" y="665.5737">no</text><line style="stroke:#181818;stroke-width:1.0;" x1="325" x2="325" y1="717.75" y2="771.7188"/><polygon fill="#181818" points="321,761.7188,325,771.7188,329,761.7188,325,765.7188" style="stroke:#181818;stroke-width:1.0;"/><text fill="#000000" font-family="sans-serif" font-size="11" lengthAdjust="spacing" textLength="14" x="325" y="743.5425">no</text><line style="stroke:#181818;stroke-width:1.0;" x1="325" x2="325" y1="795.7188" y2="849.6875"/><polygon fill="#181818" points="321,839.6875,325,849.6875,329,839.6875,325,843.6875" style="stroke:#181818;stroke-width:1.0;"/><text fill="#000000" font-family="sans-serif" font-size="11" lengthAdjust="spacing" textLength="14" x="325" y="821.5112">no</text><line style="stroke:#181818;stroke-width:1.0;" x1="325" x2="325" y1="873.6875" y2="927.6563"/><polygon fill="#181818" points="321,917.6563,325,927.6563,329,917.6563,325,921.6563" style="stroke:#181818;stroke-width:1.0;"/><text fill="#000000" font-family="sans-serif" font-size="11" lengthAdjust="spacing" textLength="14" x="325" y="899.48">no</text><line style="stroke:#181818;stroke-width:1.0;" x1="553.5" x2="553.5" y1="673.75" y2="688.75"/><line style="stroke:#181818;stroke-width:1.0;" x1="553.5" x2="690" y1="688.75" y2="688.75"/><line style="stroke:#181818;stroke-width:1.0;" x1="690" x2="690" y1="688.75" y2="1036.625"/><line style="stroke:#181818;stroke-width:1.0;" x1="690" x2="480.5" y1="1036.625" y2="1036.625"/><polygon fill="#181818" points="490.5,1032.625,480.5,1036.625,490.5,1040.625,486.5,1036.625" style="stroke:#181818;stroke-width:1.0;"/><line style="stroke:#181818;stroke-width:1.0;" x1="553.5" x2="553.5" y1="751.7188" y2="766.7188"/><line style="stroke:#181818;stroke-width:1.0;" x1="553.5" x2="690" y1="766.7188" y2="766.7188"/><polygon fill="#181818" points="680,762.7188,690,766.7188,680,770.7188,684,766.7188" style="stroke:#181818;stroke-width:1.0;"/><line style="stroke:#181818;stroke-width:1.0;" x1="553.5" x2="553.5" y1="829.6875" y2="844.6875"/><line style="stroke:#181818;stroke-width:1.0;" x1="553.5" x2="690" y1="844.6875" y2="844.6875"/><polygon fill="#181818" points="680,840.6875,690,844.6875,680,848.6875,684,844.6875" style="stroke:#181818;stroke-width:1.0;"/><line style="stroke:#181818;stroke-width:1.0;" x1="553.5" x2="553.5" y1="907.6563" y2="922.6563"/><line style="stroke:#181818;stroke-width:1.0;" x1="553.5" x2="690" y1="922.6563" y2="922.6563"/><polygon fill="#181818" points="680,918.6563,690,922.6563,680,926.6563,684,922.6563" style="stroke:#181818;stroke-width:1.0;"/><line style="stroke:#181818;stroke-width:1.0;" x1="553.5" x2="553.5" y1="985.625" y2="1000.625"/><line style="stroke:#181818;stroke-width:1.0;" x1="553.5" x2="690" y1="1000.625" y2="1000.625"/><polygon fill="#181818" points="680,996.625,690,1000.625,680,1004.625,684,1000.625" style="stroke:#181818;stroke-width:1.0;"/><line style="stroke:#181818;stroke-width:1.0;" x1="233" x2="325" y1="583.7813" y2="583.7813"/><line style="stroke:#181818;stroke-width:1.0;" x1="325" x2="325" y1="583.7813" y2="615.7813"/><polygon fill="#181818" points="321,605.7813,325,615.7813,329,605.7813,325,609.7813" style="stroke:#181818;stroke-width:1.0;"/><line style="stroke:#181818;stroke-width:1.0;" x1="325" x2="325" y1="951.6563" y2="990.625"/><line style="stroke:#181818;stroke-width:1.0;" x1="325" x2="468.5" y1="990.625" y2="990.625"/><line style="stroke:#181818;stroke-width:1.0;" x1="468.5" x2="468.5" y1="990.625" y2="1024.625"/><polygon fill="#181818" points="464.5,1014.625,468.5,1024.625,472.5,1014.625,468.5,1018.625" style="stroke:#181818;stroke-width:1.0;"/><text fill="#000000" font-family="sans-serif" font-size="11" lengthAdjust="spacing" textLength="14" x="325" y="997.4487">no</text><line style="stroke:#181818;stroke-width:1.0;" x1="468.5" x2="468.5" y1="1126.5938" y2="1146.5938"/><polygon fill="#181818" points="464.5,1136.5938,468.5,1146.5938,472.5,1136.5938,468.5,1140.5938" style="stroke:#181818;stroke-width:1.0;"/><line style="stroke:#181818;stroke-width:1.0;" x1="200.5" x2="468.5" y1="397.875" y2="397.875"/><line style="stroke:#181818;stroke-width:1.0;" x1="468.5" x2="468.5" y1="397.875" y2="409.875"/><polygon fill="#181818" points="464.5,399.875,468.5,409.875,472.5,399.875,468.5,403.875" style="stroke:#181818;stroke-width:1.0;"/><line style="stroke:#181818;stroke-width:1.0;" x1="206" x2="468.5" y1="1080.625" y2="1080.625"/><line style="stroke:#181818;stroke-width:1.0;" x1="468.5" x2="468.5" y1="1080.625" y2="1092.625"/><polygon fill="#181818" points="464.5,1082.625,468.5,1092.625,472.5,1082.625,468.5,1086.625" style="stroke:#181818;stroke-width:1.0;"/><line style="stroke:#181818;stroke-width:1.0;" x1="126.5" x2="126.5" y1="409.875" y2="571.7813"/><polygon fill="#181818" points="122.5,561.7813,126.5,571.7813,130.5,561.7813,126.5,565.7813" style="stroke:#181818;stroke-width:1.0;"/><text fill="#000000" font-family="sans-serif" font-size="11" lengthAdjust="spacing" textLength="14" x="126.5" y="489.6362">no</text><line style="stroke:#181818;stroke-width:1.0;" x1="126.5" x2="126.5" y1="595.7813" y2="1068.625"/><polygon fill="#181818" points="122.5,1058.625,126.5,1068.625,130.5,1058.625,126.5,1062.625" style="stroke:#181818;stroke-width:1.0;"/><text fill="#000000" font-family="sans-serif" font-size="11" lengthAdjust="spacing" textLength="14" x="126.5" y="836.5112">no</text><line style="stroke:#181818;stroke-width:1.0;" x1="468.5" x2="468.5" y1="551.7813" y2="566.7813"/><line style="stroke:#181818;stroke-width:1.0;" x1="468.5" x2="690" y1="566.7813" y2="566.7813"/><line style="stroke:#181818;stroke-width:1.0;" x1="690" x2="690" y1="566.7813" y2="1230.5625"/><line style="stroke:#181818;stroke-width:1.0;" x1="690" x2="367" y1="1230.5625" y2="1230.5625"/><polygon fill="#181818" points="377,1226.5625,367,1230.5625,377,1234.5625,373,1230.5625" style="stroke:#181818;stroke-width:1.0;"/><line style="stroke:#181818;stroke-width:1.0;" x1="468.5" x2="468.5" y1="1048.625" y2="1063.625"/><line style="stroke:#181818;stroke-width:1.0;" x1="468.5" x2="690" y1="1063.625" y2="1063.625"/><polygon fill="#181818" points="680,1059.625,690,1063.625,680,1067.625,684,1063.625" style="stroke:#181818;stroke-width:1.0;"/><line style="stroke:#181818;stroke-width:1.0;" x1="468.5" x2="468.5" y1="1180.5625" y2="1194.5625"/><line style="stroke:#181818;stroke-width:1.0;" x1="468.5" x2="690" y1="1194.5625" y2="1194.5625"/><polygon fill="#181818" points="680,1190.5625,690,1194.5625,680,1198.5625,684,1194.5625" style="stroke:#181818;stroke-width:1.0;"/><line style="stroke:#181818;stroke-width:1.0;" x1="355" x2="355" y1="365.875" y2="370.875"/><line style="stroke:#181818;stroke-width:1.0;" x1="355" x2="126.5" y1="370.875" y2="370.875"/><line style="stroke:#181818;stroke-width:1.0;" x1="126.5" x2="126.5" y1="370.875" y2="385.875"/><polygon fill="#181818" points="122.5,375.875,126.5,385.875,130.5,375.875,126.5,379.875" style="stroke:#181818;stroke-width:1.0;"/><line style="stroke:#181818;stroke-width:1.0;" x1="126.5" x2="126.5" y1="1092.625" y2="1185.5625"/><line style="stroke:#181818;stroke-width:1.0;" x1="126.5" x2="355" y1="1185.5625" y2="1185.5625"/><line style="stroke:#181818;stroke-width:1.0;" x1="355" x2="355" y1="1185.5625" y2="1218.5625"/><polygon fill="#181818" points="351,1208.5625,355,1218.5625,359,1208.5625,355,1212.5625" style="stroke:#181818;stroke-width:1.0;"/><text fill="#000000" font-family="sans-serif" font-size="11" lengthAdjust="spacing" textLength="14" x="126.5" y="1157.9019">no</text><line style="stroke:#181818;stroke-width:1.0;" x1="355" x2="355" y1="311.9063" y2="331.9063"/><polygon fill="#181818" points="351,321.9063,355,331.9063,359,321.9063,355,325.9063" style="stroke:#181818;stroke-width:1.0;"/><line style="stroke:#181818;stroke-width:1.0;" x1="421.5" x2="702" y1="1274.5625" y2="1274.5625"/><polygon fill="#181818" points="698,783.7344,702,773.7344,706,783.7344,702,779.7344" style="stroke:#181818;stroke-width:1.0;"/><line style="stroke:#181818;stroke-width:1.0;" x1="702" x2="702" y1="299.9063" y2="1274.5625"/><line style="stroke:#181818;stroke-width:1.0;" x1="702" x2="367" y1="299.9063" y2="299.9063"/><polygon fill="#181818" points="377,295.9063,367,299.9063,377,303.9063,373,299.9063" style="stroke:#181818;stroke-width:1.0;"/><line style="stroke:#181818;stroke-width:1.0;" x1="355" x2="355" y1="1242.5625" y2="1262.5625"/><polygon fill="#181818" points="351,1252.5625,355,1262.5625,359,1252.5625,355,1256.5625" style="stroke:#181818;stroke-width:1.0;"/><line style="stroke:#181818;stroke-width:1.0;" x1="355" x2="355" y1="267.9063" y2="287.9063"/><polygon fill="#181818" points="351,277.9063,355,287.9063,359,277.9063,355,281.9063" style="stroke:#181818;stroke-width:1.0;"/><!--SRC=[ZLDDJ-Cm4BtxLmotz00_e3r1uL29ZzL6YyHncamQxwQsvHaJiR-USPFi9a0bJf4yB-_3ytmH8XwE28dfcQBO2hjT0zuP5enYrcN-NAQmCROfRYqUd6T5mK-Vn3fQWRJae7ZqS1UZZxmowwrtEae4lPKMhaFeb5MiTnj37HCK_v1bcwJslGvOV33aQjkOzQ-h7NGUQuO7j0uUoAMDYHG8iv_Mz_DpTLLAgj_W9ebu1o4ICzMJhpTI7JXHilx9C81_HD_OZg2aZgfi3Seg4gaHM0zdI-1cmN5lNoaBlLhgmJTGuP4YCg2hWScnXWFh6X-FOsmmXVChoEbj0qLshYGieohiptlNVDiMtO5WLpvDavUFgNG6MFzEkXft09wop5GdbkkWMqvHezk_T9PlWVecSrwcK8GoqFyCdvWNg6yozwqLki4ENNNUyXpq1UzY0Llix3wYqBIknPNFIATjLkCFkIa38qzbLbu3GtCNrZ6SBl3ZQYrFAgUNDTPiHEUQtQ9WHksn-gCtb89MIJpaupqopMK7rU5bvFnQw69y1ixBPyrt]--></g></svg>