<?xml version="1.0" encoding="us-ascii" standalone="no"?><svg xmlns="http://www.w3.org/2000/svg" xmlns:xlink="http://www.w3.org/1999/xlink" contentStyleType="text/css" height="1287px" preserveAspectRatio="none" style="width:675px;height:1287px;background:#FFFFFF;" version="1.1" viewBox="0 0 675 1287" width="675px" zoomAndPan="magnify"><defs/><g><ellipse cx="328.5" cy="20" fill="#222222" rx="10" ry="10" style="stroke:#222222;stroke-width:1.0;"/><rect fill="#F1F1F1" height="36.3441" rx="12.5" ry="12.5" style="stroke:#181818;stroke-width:0.5;" width="65" x="296" y="50"/><text fill="#000000" font-family="sans-serif" font-size="12" lengthAdjust="spacing" textLength="45" x="306" y="72.8281">Start-up</text><polygon fill="#F1F1F1" points="279,106.3441,378,106.3441,390,118.3441,378,130.3441,279,130.3441,267,118.3441,279,106.3441" style="stroke:#181818;stroke-width:0.5;"/><text fill="#000000" font-family="sans-serif" font-size="11" lengthAdjust="spacing" textLength="99" x="279" y="122.6121">Diagnostic Routine</text><text fill="#000000" font-family="sans-serif" font-size="11" lengthAdjust="spacing" textLength="51" x="216" y="115.1211">No Errors</text><text fill="#000000" font-family="sans-serif" font-size="11" lengthAdjust="spacing" textLength="33" x="390" y="115.1211">Errors</text><rect fill="#F1F1F1" height="36.3441" rx="12.5" ry="12.5" style="stroke:#181818;stroke-width:0.5;" width="161" x="140.25" y="140.3441"/><text fill="#000000" font-family="sans-serif" font-size="12" lengthAdjust="spacing" textLength="141" x="150.25" y="163.1722">Continue with Application</text><rect fill="#F1F1F1" height="36.3441" rx="12.5" ry="12.5" style="stroke:#181818;stroke-width:0.5;" width="230" x="321.25" y="140.3441"/><text fill="#000000" font-family="sans-serif" font-size="12" lengthAdjust="spacing" textLength="210" x="331.25" y="163.1722">Shutdown application and throw error</text><ellipse cx="436.25" cy="207.6882" fill="none" rx="11" ry="11" style="stroke:#222222;stroke-width:1.0;"/><ellipse cx="436.25" cy="207.6882" fill="#222222" rx="6" ry="6" style="stroke:#222222;stroke-width:1.0;"/><rect fill="#F1F1F1" height="36.3441" rx="12.5" ry="12.5" style="stroke:#181818;stroke-width:0.5;" width="158" x="249.5" y="238.6882"/><text fill="#000000" font-family="sans-serif" font-size="12" lengthAdjust="spacing" textLength="138" x="259.5" y="261.5163">U.I loads Preview Screen</text><rect fill="#F1F1F1" height="36.3441" rx="12.5" ry="12.5" style="stroke:#181818;stroke-width:0.5;" width="139" x="259" y="339.0323"/><text fill="#000000" font-family="sans-serif" font-size="12" lengthAdjust="spacing" textLength="119" x="269" y="361.8604">Show Preview Screen</text><rect fill="#F1F1F1" height="36.3441" rx="12.5" ry="12.5" style="stroke:#181818;stroke-width:0.5;" width="243" x="312" y="419.3765"/><text fill="#000000" font-family="sans-serif" font-size="12" lengthAdjust="spacing" textLength="223" x="322" y="442.2045">U.I shows Study Profile Selection Screen</text><rect fill="#F1F1F1" height="36.3441" rx="12.5" ry="12.5" style="stroke:#181818;stroke-width:0.5;" width="127" x="370" y="487.4345"/><text fill="#000000" font-family="sans-serif" font-size="12" lengthAdjust="spacing" textLength="107" x="380" y="510.2626">Select Study Profile</text><rect fill="#F1F1F1" height="36.3441" rx="12.5" ry="12.5" style="stroke:#181818;stroke-width:0.5;" width="196" x="413" y="611.7786"/><text fill="#000000" font-family="sans-serif" font-size="12" lengthAdjust="spacing" textLength="176" x="423" y="634.6067">U.I shows gain adjusting screen</text><rect fill="#F1F1F1" height="36.3441" rx="12.5" ry="12.5" style="stroke:#181818;stroke-width:0.5;" width="230" x="396" y="692.1227"/><text fill="#000000" font-family="sans-serif" font-size="12" lengthAdjust="spacing" textLength="210" x="406" y="714.9508">U.I shows Saturation adjusting screen</text><rect fill="#F1F1F1" height="36.3441" rx="12.5" ry="12.5" style="stroke:#181818;stroke-width:0.5;" width="251" x="385.5" y="772.4668"/><text fill="#000000" font-family="sans-serif" font-size="12" lengthAdjust="spacing" textLength="231" x="395.5" y="795.2949">U.I shows Shutter Speed adjusting screen</text><rect fill="#F1F1F1" height="36.3441" rx="12.5" ry="12.5" style="stroke:#181818;stroke-width:0.5;" width="252" x="385" y="852.8109"/><text fill="#000000" font-family="sans-serif" font-size="12" lengthAdjust="spacing" textLength="232" x="395" y="875.639">U.I shows White Balance adjusting screen</text><rect fill="#F1F1F1" height="36.3441" rx="12.5" ry="12.5" style="stroke:#181818;stroke-width:0.5;" width="230" x="396" y="933.1551"/><text fill="#000000" font-family="sans-serif" font-size="12" lengthAdjust="spacing" textLength="210" x="406" y="955.9832">U.I shows sensors calibration screens</text><polygon fill="#F1F1F1" points="267,587.7786,334,587.7786,346,599.7786,334,611.7786,267,611.7786,255,599.7786,267,587.7786" style="stroke:#181818;stroke-width:0.5;"/><text fill="#000000" font-family="sans-serif" font-size="11" lengthAdjust="spacing" textLength="67" x="267" y="604.0466">Change Gain</text><text fill="#000000" font-family="sans-serif" font-size="11" lengthAdjust="spacing" textLength="17" x="346" y="596.5556">Yes</text><polygon fill="#F1F1F1" points="251.5,668.1227,349.5,668.1227,361.5,680.1227,349.5,692.1227,251.5,692.1227,239.5,680.1227,251.5,668.1227" style="stroke:#181818;stroke-width:0.5;"/><text fill="#000000" font-family="sans-serif" font-size="11" lengthAdjust="spacing" textLength="98" x="251.5" y="684.3907">Change Saturation</text><text fill="#000000" font-family="sans-serif" font-size="11" lengthAdjust="spacing" textLength="17" x="361.5" y="676.8997">Yes</text><polygon fill="#F1F1F1" points="242,748.4668,359,748.4668,371,760.4668,359,772.4668,242,772.4668,230,760.4668,242,748.4668" style="stroke:#181818;stroke-width:0.5;"/><text fill="#000000" font-family="sans-serif" font-size="11" lengthAdjust="spacing" textLength="117" x="242" y="764.7348">Change Shutter Speed</text><text fill="#000000" font-family="sans-serif" font-size="11" lengthAdjust="spacing" textLength="17" x="371" y="757.2439">Yes</text><polygon fill="#F1F1F1" points="242.5,828.8109,358.5,828.8109,370.5,840.8109,358.5,852.8109,242.5,852.8109,230.5,840.8109,242.5,828.8109" style="stroke:#181818;stroke-width:0.5;"/><text fill="#000000" font-family="sans-serif" font-size="11" lengthAdjust="spacing" textLength="116" x="242.5" y="845.0789">Change White Balance</text><text fill="#000000" font-family="sans-serif" font-size="11" lengthAdjust="spacing" textLength="17" x="370.5" y="837.588">Yes</text><polygon fill="#F1F1F1" points="255.5,909.1551,345.5,909.1551,357.5,921.1551,345.5,933.1551,255.5,933.1551,243.5,921.1551,255.5,909.1551" style="stroke:#181818;stroke-width:0.5;"/><text fill="#000000" font-family="sans-serif" font-size="11" lengthAdjust="spacing" textLength="90" x="255.5" y="925.423">Calibrate sensors</text><text fill="#000000" font-family="sans-serif" font-size="11" lengthAdjust="spacing" textLength="17" x="357.5" y="917.9321">yes</text><polygon fill="#F1F1F1" points="433.5,1008.4992,445.5,1020.4992,433.5,1032.4992,421.5,1020.4992,433.5,1008.4992" style="stroke:#181818;stroke-width:0.5;"/><rect fill="#F1F1F1" height="36.3441" rx="12.5" ry="12.5" style="stroke:#181818;stroke-width:0.5;" width="129" x="369" y="1076.4992"/><text fill="#000000" font-family="sans-serif" font-size="12" lengthAdjust="spacing" textLength="109" x="379" y="1099.3273">Start Study Capture</text><rect fill="#F1F1F1" height="36.3441" rx="12.5" ry="12.5" style="stroke:#181818;stroke-width:0.5;" width="200" x="333.5" y="1132.8433"/><text fill="#000000" font-family="sans-serif" font-size="12" lengthAdjust="spacing" textLength="180" x="343.5" y="1155.6714">Data is backed up into Database</text><polygon fill="#F1F1F1" points="61.5,395.3765,174.5,395.3765,186.5,407.3765,174.5,419.3765,61.5,419.3765,49.5,407.3765,61.5,395.3765" style="stroke:#181818;stroke-width:0.5;"/><text fill="#000000" font-family="sans-serif" font-size="11" lengthAdjust="spacing" textLength="113" x="61.5" y="411.6444">Study Button pressed</text><text fill="#000000" font-family="sans-serif" font-size="11" lengthAdjust="spacing" textLength="17" x="186.5" y="404.1535">yes</text><polygon fill="#F1F1F1" points="32,543.7786,204,543.7786,216,555.7786,204,567.7786,32,567.7786,20,555.7786,32,543.7786" style="stroke:#181818;stroke-width:0.5;"/><text fill="#000000" font-family="sans-serif" font-size="11" lengthAdjust="spacing" textLength="172" x="32" y="560.0466">Menu List Screen button pressed</text><text fill="#000000" font-family="sans-serif" font-size="11" lengthAdjust="spacing" textLength="17" x="216" y="552.5556">yes</text><polygon fill="#F1F1F1" points="55.5,1052.4992,180.5,1052.4992,192.5,1064.4992,180.5,1076.4992,55.5,1076.4992,43.5,1064.4992,55.5,1052.4992" style="stroke:#181818;stroke-width:0.5;"/><text fill="#000000" font-family="sans-serif" font-size="11" lengthAdjust="spacing" textLength="125" x="55.5" y="1068.7671">Capture button pressed</text><text fill="#000000" font-family="sans-serif" font-size="11" lengthAdjust="spacing" textLength="17" x="192.5" y="1061.2762">yes</text><polygon fill="#F1F1F1" points="328.5,1207.1874,340.5,1219.1874,328.5,1231.1874,316.5,1219.1874,328.5,1207.1874" style="stroke:#181818;stroke-width:0.5;"/><polygon fill="#F1F1F1" points="328.5,295.0323,340.5,307.0323,328.5,319.0323,316.5,307.0323,328.5,295.0323" style="stroke:#181818;stroke-width:0.5;"/><polygon fill="#F1F1F1" points="278,1251.1874,379,1251.1874,391,1263.1874,379,1275.1874,278,1275.1874,266,1263.1874,278,1251.1874" style="stroke:#181818;stroke-width:0.5;"/><text fill="#000000" font-family="sans-serif" font-size="11" lengthAdjust="spacing" textLength="101" x="278" y="1267.4554">Button not pressed</text><text fill="#000000" font-family="sans-serif" font-size="11" lengthAdjust="spacing" textLength="17" x="391" y="1259.9644">yes</text><line style="stroke:#181818;stroke-width:1.0;" x1="328.5" x2="328.5" y1="30" y2="50"/><polygon fill="#181818" points="324.5,40,328.5,50,332.5,40,328.5,44" style="stroke:#181818;stroke-width:1.0;"/><line style="stroke:#181818;stroke-width:1.0;" x1="436.25" x2="436.25" y1="176.6882" y2="196.6882"/><polygon fill="#181818" points="432.25,186.6882,436.25,196.6882,440.25,186.6882,436.25,190.6882" style="stroke:#181818;stroke-width:1.0;"/><line style="stroke:#181818;stroke-width:1.0;" x1="267" x2="220.75" y1="118.3441" y2="118.3441"/><line style="stroke:#181818;stroke-width:1.0;" x1="220.75" x2="220.75" y1="118.3441" y2="140.3441"/><polygon fill="#181818" points="216.75,130.3441,220.75,140.3441,224.75,130.3441,220.75,134.3441" style="stroke:#181818;stroke-width:1.0;"/><line style="stroke:#181818;stroke-width:1.0;" x1="390" x2="436.25" y1="118.3441" y2="118.3441"/><line style="stroke:#181818;stroke-width:1.0;" x1="436.25" x2="436.25" y1="118.3441" y2="140.3441"/><polygon fill="#181818" points="432.25,130.3441,436.25,140.3441,440.25,130.3441,436.25,134.3441" style="stroke:#181818;stroke-width:1.0;"/><line style="stroke:#181818;stroke-width:1.0;" x1="220.75" x2="220.75" y1="176.6882" y2="223.6882"/><line style="stroke:#181818;stroke-width:1.0;" x1="220.75" x2="328.5" y1="223.6882" y2="223.6882"/><line style="stroke:#181818;stroke-width:1.0;" x1="328.5" x2="328.5" y1="223.6882" y2="238.6882"/><polygon fill="#181818" points="324.5,228.6882,328.5,238.6882,332.5,228.6882,328.5,232.6882" style="stroke:#181818;stroke-width:1.0;"/><line style="stroke:#181818;stroke-width:1.0;" x1="328.5" x2="328.5" y1="86.3441" y2="106.3441"/><polygon fill="#181818" points="324.5,96.3441,328.5,106.3441,332.5,96.3441,328.5,100.3441" style="stroke:#181818;stroke-width:1.0;"/><line style="stroke:#181818;stroke-width:1.0;" x1="433.5" x2="433.5" y1="455.7206" y2="487.4345"/><polygon fill="#181818" points="429.5,477.4345,433.5,487.4345,437.5,477.4345,433.5,481.4345" style="stroke:#181818;stroke-width:1.0;"/><line style="stroke:#181818;stroke-width:1.0;" x1="346" x2="511" y1="599.7786" y2="599.7786"/><line style="stroke:#181818;stroke-width:1.0;" x1="511" x2="511" y1="599.7786" y2="611.7786"/><polygon fill="#181818" points="507,601.7786,511,611.7786,515,601.7786,511,605.7786" style="stroke:#181818;stroke-width:1.0;"/><line style="stroke:#181818;stroke-width:1.0;" x1="361.5" x2="511" y1="680.1227" y2="680.1227"/><line style="stroke:#181818;stroke-width:1.0;" x1="511" x2="511" y1="680.1227" y2="692.1227"/><polygon fill="#181818" points="507,682.1227,511,692.1227,515,682.1227,511,686.1227" style="stroke:#181818;stroke-width:1.0;"/><line style="stroke:#181818;stroke-width:1.0;" x1="371" x2="511" y1="760.4668" y2="760.4668"/><line style="stroke:#181818;stroke-width:1.0;" x1="511" x2="511" y1="760.4668" y2="772.4668"/><polygon fill="#181818" points="507,762.4668,511,772.4668,515,762.4668,511,766.4668" style="stroke:#181818;stroke-width:1.0;"/><line style="stroke:#181818;stroke-width:1.0;" x1="370.5" x2="511" y1="840.8109" y2="840.8109"/><line style="stroke:#181818;stroke-width:1.0;" x1="511" x2="511" y1="840.8109" y2="852.8109"/><polygon fill="#181818" points="507,842.8109,511,852.8109,515,842.8109,511,846.8109" style="stroke:#181818;stroke-width:1.0;"/><line style="stroke:#181818;stroke-width:1.0;" x1="357.5" x2="511" y1="921.1551" y2="921.1551"/><line style="stroke:#181818;stroke-width:1.0;" x1="511" x2="511" y1="921.1551" y2="933.1551"/><polygon fill="#181818" points="507,923.1551,511,933.1551,515,923.1551,511,927.1551" style="stroke:#181818;stroke-width:1.0;"/><line style="stroke:#181818;stroke-width:1.0;" x1="300.5" x2="300.5" y1="611.7786" y2="668.1227"/><polygon fill="#181818" points="296.5,658.1227,300.5,668.1227,304.5,658.1227,300.5,662.1227" style="stroke:#181818;stroke-width:1.0;"/><text fill="#000000" font-family="sans-serif" font-size="11" lengthAdjust="spacing" textLength="14" x="300.5" y="639.2186">no</text><line style="stroke:#181818;stroke-width:1.0;" x1="300.5" x2="300.5" y1="692.1227" y2="748.4668"/><polygon fill="#181818" points="296.5,738.4668,300.5,748.4668,304.5,738.4668,300.5,742.4668" style="stroke:#181818;stroke-width:1.0;"/><text fill="#000000" font-family="sans-serif" font-size="11" lengthAdjust="spacing" textLength="14" x="300.5" y="719.5627">no</text><line style="stroke:#181818;stroke-width:1.0;" x1="300.5" x2="300.5" y1="772.4668" y2="828.8109"/><polygon fill="#181818" points="296.5,818.8109,300.5,828.8109,304.5,818.8109,300.5,822.8109" style="stroke:#181818;stroke-width:1.0;"/><text fill="#000000" font-family="sans-serif" font-size="11" lengthAdjust="spacing" textLength="14" x="300.5" y="799.9069">no</text><line style="stroke:#181818;stroke-width:1.0;" x1="300.5" x2="300.5" y1="852.8109" y2="909.1551"/><polygon fill="#181818" points="296.5,899.1551,300.5,909.1551,304.5,899.1551,300.5,903.1551" style="stroke:#181818;stroke-width:1.0;"/><text fill="#000000" font-family="sans-serif" font-size="11" lengthAdjust="spacing" textLength="14" x="300.5" y="880.251">no</text><line style="stroke:#181818;stroke-width:1.0;" x1="511" x2="511" y1="648.1227" y2="663.1227"/><line style="stroke:#181818;stroke-width:1.0;" x1="511" x2="637" y1="663.1227" y2="663.1227"/><line style="stroke:#181818;stroke-width:1.0;" x1="637" x2="637" y1="663.1227" y2="1020.4992"/><line style="stroke:#181818;stroke-width:1.0;" x1="637" x2="445.5" y1="1020.4992" y2="1020.4992"/><polygon fill="#181818" points="455.5,1016.4992,445.5,1020.4992,455.5,1024.4992,451.5,1020.4992" style="stroke:#181818;stroke-width:1.0;"/><line style="stroke:#181818;stroke-width:1.0;" x1="511" x2="511" y1="728.4668" y2="743.4668"/><line style="stroke:#181818;stroke-width:1.0;" x1="511" x2="637" y1="743.4668" y2="743.4668"/><polygon fill="#181818" points="627,739.4668,637,743.4668,627,747.4668,631,743.4668" style="stroke:#181818;stroke-width:1.0;"/><line style="stroke:#181818;stroke-width:1.0;" x1="511" x2="511" y1="808.8109" y2="823.8109"/><line style="stroke:#181818;stroke-width:1.0;" x1="511" x2="637" y1="823.8109" y2="823.8109"/><polygon fill="#181818" points="627,819.8109,637,823.8109,627,827.8109,631,823.8109" style="stroke:#181818;stroke-width:1.0;"/><line style="stroke:#181818;stroke-width:1.0;" x1="511" x2="511" y1="889.1551" y2="904.1551"/><line style="stroke:#181818;stroke-width:1.0;" x1="511" x2="637" y1="904.1551" y2="904.1551"/><polygon fill="#181818" points="627,900.1551,637,904.1551,627,908.1551,631,904.1551" style="stroke:#181818;stroke-width:1.0;"/><line style="stroke:#181818;stroke-width:1.0;" x1="511" x2="511" y1="969.4992" y2="984.4992"/><line style="stroke:#181818;stroke-width:1.0;" x1="511" x2="637" y1="984.4992" y2="984.4992"/><polygon fill="#181818" points="627,980.4992,637,984.4992,627,988.4992,631,984.4992" style="stroke:#181818;stroke-width:1.0;"/><line style="stroke:#181818;stroke-width:1.0;" x1="216" x2="300.5" y1="555.7786" y2="555.7786"/><line style="stroke:#181818;stroke-width:1.0;" x1="300.5" x2="300.5" y1="555.7786" y2="587.7786"/><polygon fill="#181818" points="296.5,577.7786,300.5,587.7786,304.5,577.7786,300.5,581.7786" style="stroke:#181818;stroke-width:1.0;"/><line style="stroke:#181818;stroke-width:1.0;" x1="300.5" x2="300.5" y1="933.1551" y2="974.4992"/><line style="stroke:#181818;stroke-width:1.0;" x1="300.5" x2="433.5" y1="974.4992" y2="974.4992"/><line style="stroke:#181818;stroke-width:1.0;" x1="433.5" x2="433.5" y1="974.4992" y2="1008.4992"/><polygon fill="#181818" points="429.5,998.4992,433.5,1008.4992,437.5,998.4992,433.5,1002.4992" style="stroke:#181818;stroke-width:1.0;"/><text fill="#000000" font-family="sans-serif" font-size="11" lengthAdjust="spacing" textLength="14" x="300.5" y="980.5951">no</text><line style="stroke:#181818;stroke-width:1.0;" x1="433.5" x2="433.5" y1="1112.8433" y2="1132.8433"/><polygon fill="#181818" points="429.5,1122.8433,433.5,1132.8433,437.5,1122.8433,433.5,1126.8433" style="stroke:#181818;stroke-width:1.0;"/><line style="stroke:#181818;stroke-width:1.0;" x1="186.5" x2="433.5" y1="407.3765" y2="407.3765"/><line style="stroke:#181818;stroke-width:1.0;" x1="433.5" x2="433.5" y1="407.3765" y2="419.3765"/><polygon fill="#181818" points="429.5,409.3765,433.5,419.3765,437.5,409.3765,433.5,413.3765" style="stroke:#181818;stroke-width:1.0;"/><line style="stroke:#181818;stroke-width:1.0;" x1="192.5" x2="433.5" y1="1064.4992" y2="1064.4992"/><line style="stroke:#181818;stroke-width:1.0;" x1="433.5" x2="433.5" y1="1064.4992" y2="1076.4992"/><polygon fill="#181818" points="429.5,1066.4992,433.5,1076.4992,437.5,1066.4992,433.5,1070.4992" style="stroke:#181818;stroke-width:1.0;"/><line style="stroke:#181818;stroke-width:1.0;" x1="118" x2="118" y1="419.3765" y2="543.7786"/><polygon fill="#181818" points="114,533.7786,118,543.7786,122,533.7786,118,537.7786" style="stroke:#181818;stroke-width:1.0;"/><text fill="#000000" font-family="sans-serif" font-size="11" lengthAdjust="spacing" textLength="14" x="118" y="479.2025">no</text><line style="stroke:#181818;stroke-width:1.0;" x1="118" x2="118" y1="567.7786" y2="1052.4992"/><polygon fill="#181818" points="114,1042.4992,118,1052.4992,122,1042.4992,118,1046.4992" style="stroke:#181818;stroke-width:1.0;"/><text fill="#000000" font-family="sans-serif" font-size="11" lengthAdjust="spacing" textLength="14" x="118" y="814.9069">no</text><line style="stroke:#181818;stroke-width:1.0;" x1="433.5" x2="433.5" y1="523.7786" y2="538.7786"/><line style="stroke:#181818;stroke-width:1.0;" x1="433.5" x2="637" y1="538.7786" y2="538.7786"/><line style="stroke:#181818;stroke-width:1.0;" x1="637" x2="637" y1="538.7786" y2="1219.1874"/><line style="stroke:#181818;stroke-width:1.0;" x1="637" x2="340.5" y1="1219.1874" y2="1219.1874"/><polygon fill="#181818" points="350.5,1215.1874,340.5,1219.1874,350.5,1223.1874,346.5,1219.1874" style="stroke:#181818;stroke-width:1.0;"/><line style="stroke:#181818;stroke-width:1.0;" x1="433.5" x2="433.5" y1="1032.4992" y2="1047.4992"/><line style="stroke:#181818;stroke-width:1.0;" x1="433.5" x2="637" y1="1047.4992" y2="1047.4992"/><polygon fill="#181818" points="627,1043.4992,637,1047.4992,627,1051.4992,631,1047.4992" style="stroke:#181818;stroke-width:1.0;"/><line style="stroke:#181818;stroke-width:1.0;" x1="433.5" x2="433.5" y1="1169.1874" y2="1183.1874"/><line style="stroke:#181818;stroke-width:1.0;" x1="433.5" x2="637" y1="1183.1874" y2="1183.1874"/><polygon fill="#181818" points="627,1179.1874,637,1183.1874,627,1187.1874,631,1183.1874" style="stroke:#181818;stroke-width:1.0;"/><line style="stroke:#181818;stroke-width:1.0;" x1="328.5" x2="328.5" y1="375.3765" y2="380.3765"/><line style="stroke:#181818;stroke-width:1.0;" x1="328.5" x2="118" y1="380.3765" y2="380.3765"/><line style="stroke:#181818;stroke-width:1.0;" x1="118" x2="118" y1="380.3765" y2="395.3765"/><polygon fill="#181818" points="114,385.3765,118,395.3765,122,385.3765,118,389.3765" style="stroke:#181818;stroke-width:1.0;"/><line style="stroke:#181818;stroke-width:1.0;" x1="118" x2="118" y1="1076.4992" y2="1174.1874"/><line style="stroke:#181818;stroke-width:1.0;" x1="118" x2="328.5" y1="1174.1874" y2="1174.1874"/><line style="stroke:#181818;stroke-width:1.0;" x1="328.5" x2="328.5" y1="1174.1874" y2="1207.1874"/><polygon fill="#181818" points="324.5,1197.1874,328.5,1207.1874,332.5,1197.1874,328.5,1201.1874" style="stroke:#181818;stroke-width:1.0;"/><text fill="#000000" font-family="sans-serif" font-size="11" lengthAdjust="spacing" textLength="14" x="118" y="1144.6113">no</text><line style="stroke:#181818;stroke-width:1.0;" x1="328.5" x2="328.5" y1="319.0323" y2="339.0323"/><polygon fill="#181818" points="324.5,329.0323,328.5,339.0323,332.5,329.0323,328.5,333.0323" style="stroke:#181818;stroke-width:1.0;"/><line style="stroke:#181818;stroke-width:1.0;" x1="391" x2="649" y1="1263.1874" y2="1263.1874"/><polygon fill="#181818" points="645,794.9668,649,784.9668,653,794.9668,649,790.9668" style="stroke:#181818;stroke-width:1.0;"/><line style="stroke:#181818;stroke-width:1.0;" x1="649" x2="649" y1="307.0323" y2="1263.1874"/><line style="stroke:#181818;stroke-width:1.0;" x1="649" x2="340.5" y1="307.0323" y2="307.0323"/><polygon fill="#181818" points="350.5,303.0323,340.5,307.0323,350.5,311.0323,346.5,307.0323" style="stroke:#181818;stroke-width:1.0;"/><line style="stroke:#181818;stroke-width:1.0;" x1="328.5" x2="328.5" y1="1231.1874" y2="1251.1874"/><polygon fill="#181818" points="324.5,1241.1874,328.5,1251.1874,332.5,1241.1874,328.5,1245.1874" style="stroke:#181818;stroke-width:1.0;"/><line style="stroke:#181818;stroke-width:1.0;" x1="328.5" x2="328.5" y1="275.0323" y2="295.0323"/><polygon fill="#181818" points="324.5,285.0323,328.5,295.0323,332.5,285.0323,328.5,289.0323" style="stroke:#181818;stroke-width:1.0;"/><!--SRC=[ZLDDRzf04BtlhvZUp054AAqQSsdvI1GA3Oe3LO-3FU1jpQwr7o3-VMR1Bf04AITBEs_Ul7dp_AaqkDuWU4iBCawcM3oiG2jX7HeduYHychxi2RcAXXBNIbj6mPFsJYfgWCj9GVHBmyWORMn3n0EjkEG9TjBbyACi2sPrKgkUeC8IHF-HIUvTfdSAy0G2L1cJ6hq32hWUAz6b89N9bOZdhGSeD6OMPeQsadQGf8Q8gGsLX45mpfslYwmzSJxRGzyxnpDAGzPILglV4wk10xdbTWj7yCpebIm84YeeFMYh-I0-lbq2-Lr4IZSWh2bN44r9UPX8wwf6M5uVpn87EQermJrALPV-l5QsvY9WzjVp5TGQR2teR6xDaw3pvk3fLROJvAESV3571fAIJlhVqfwZFiZyEvUEe8y5gfIkCb-Wtc6-i7-0XLpoUWIMb0sHEpVyZBKgGrer13-EZBREBFCAE8RmGZoMx22zEQoqzPJ33rJbf4A7_0pHOK0jCVt77laIf78QmlCIBPsFFKuzvXjsUKXaLELOQVVEpE_SuJT2pDWbDvzEO4l6XfrkMfrsvtFhfXFT6GcFdDzE6zgtSVSs_jA5qV0PGhqXellP1ApsXZtEEBv6yduXHsACMuGdpp_uXc9uB4cDXp_h1nYfhJHQRKWvCLvCJu2ltMPViWjaM0eifc98A_I5uuvKPtp06ERFTyrlOi9PyBXcRb9Ye9dNxBcMl000]--></g></svg>