<?xml version="1.0" encoding="us-ascii" standalone="no"?><svg xmlns="http://www.w3.org/2000/svg" xmlns:xlink="http://www.w3.org/1999/xlink" contentStyleType="text/css" height="1331px" preserveAspectRatio="none" style="width:674px;height:1331px;background:#FFFFFF;" version="1.1" viewBox="0 0 674 1331" width="674px" zoomAndPan="magnify"><defs/><g><ellipse cx="328" cy="20" fill="#222222" rx="10" ry="10" style="stroke:#222222;stroke-width:1.0;"/><rect fill="#F1F1F1" height="36.3441" rx="12.5" ry="12.5" style="stroke:#181818;stroke-width:0.5;" width="65" x="295.5" y="50"/><text fill="#000000" font-family="sans-serif" font-size="12" lengthAdjust="spacing" textLength="45" x="305.5" y="72.8281">Start-up</text><polygon fill="#F1F1F1" points="278.5,106.3441,377.5,106.3441,389.5,118.3441,377.5,130.3441,278.5,130.3441,266.5,118.3441,278.5,106.3441" style="stroke:#181818;stroke-width:0.5;"/><text fill="#000000" font-family="sans-serif" font-size="11" lengthAdjust="spacing" textLength="99" x="278.5" y="122.6121">Diagnostic Routine</text><text fill="#000000" font-family="sans-serif" font-size="11" lengthAdjust="spacing" textLength="51" x="215.5" y="115.1211">No Errors</text><text fill="#000000" font-family="sans-serif" font-size="11" lengthAdjust="spacing" textLength="33" x="389.5" y="115.1211">Errors</text><rect fill="#F1F1F1" height="36.3441" rx="12.5" ry="12.5" style="stroke:#181818;stroke-width:0.5;" width="161" x="176" y="140.3441"/><text fill="#000000" font-family="sans-serif" font-size="12" lengthAdjust="spacing" textLength="141" x="186" y="163.1722">Continue with Application</text><rect fill="#F1F1F1" height="36.3441" rx="12.5" ry="12.5" style="stroke:#181818;stroke-width:0.5;" width="75" x="362" y="140.3441"/><text fill="#000000" font-family="sans-serif" font-size="12" lengthAdjust="spacing" textLength="55" x="372" y="163.1722">Shutdown</text><ellipse cx="399.5" cy="207.6882" fill="none" rx="11" ry="11" style="stroke:#222222;stroke-width:1.0;"/><ellipse cx="399.5" cy="207.6882" fill="#222222" rx="6" ry="6" style="stroke:#111111;stroke-width:1.0;"/><rect fill="#F1F1F1" height="36.3441" rx="12.5" ry="12.5" style="stroke:#181818;stroke-width:0.5;" width="158" x="249" y="238.6882"/><text fill="#000000" font-family="sans-serif" font-size="12" lengthAdjust="spacing" textLength="138" x="259" y="261.5163">U.I loads Preview Screen</text><rect fill="#F1F1F1" height="36.3441" rx="12.5" ry="12.5" style="stroke:#181818;stroke-width:0.5;" width="139" x="258.5" y="339.0323"/><text fill="#000000" font-family="sans-serif" font-size="12" lengthAdjust="spacing" textLength="119" x="268.5" y="361.8604">Show Preview Screen</text><rect fill="#F1F1F1" height="36.3441" rx="12.5" ry="12.5" style="stroke:#181818;stroke-width:0.5;" width="243" x="311.5" y="419.3765"/><text fill="#000000" font-family="sans-serif" font-size="12" lengthAdjust="spacing" textLength="223" x="321.5" y="442.2045">U.I shows Study Profile Selection Screen</text><rect fill="#F1F1F1" height="36.3441" rx="12.5" ry="12.5" style="stroke:#181818;stroke-width:0.5;" width="127" x="369.5" y="475.7206"/><text fill="#000000" font-family="sans-serif" font-size="12" lengthAdjust="spacing" textLength="107" x="379.5" y="498.5487">Select Study Profile</text><rect fill="#F1F1F1" height="36.3441" rx="12.5" ry="12.5" style="stroke:#181818;stroke-width:0.5;" width="351" x="257.5" y="532.0647"/><text fill="#000000" font-family="sans-serif" font-size="12" lengthAdjust="spacing" textLength="331" x="267.5" y="554.8928">U.I shows Live preview of cameras and sensors information</text><rect fill="#F1F1F1" height="36.3441" rx="12.5" ry="12.5" style="stroke:#181818;stroke-width:0.5;" width="192" x="414.5" y="656.4088"/><text fill="#000000" font-family="sans-serif" font-size="12" lengthAdjust="spacing" textLength="172" x="424.5" y="679.2369">U.I shows ISO adjusting screen</text><rect fill="#F1F1F1" height="36.3441" rx="12.5" ry="12.5" style="stroke:#181818;stroke-width:0.5;" width="248" x="386.5" y="736.7529"/><text fill="#000000" font-family="sans-serif" font-size="12" lengthAdjust="spacing" textLength="228" x="396.5" y="759.581">U.I shows Aperture Size adjusting screen</text><rect fill="#F1F1F1" height="36.3441" rx="12.5" ry="12.5" style="stroke:#181818;stroke-width:0.5;" width="251" x="385" y="817.097"/><text fill="#000000" font-family="sans-serif" font-size="12" lengthAdjust="spacing" textLength="231" x="395" y="839.9251">U.I shows Shutter Speed adjusting screen</text><rect fill="#F1F1F1" height="36.3441" rx="12.5" ry="12.5" style="stroke:#181818;stroke-width:0.5;" width="247" x="387" y="897.4411"/><text fill="#000000" font-family="sans-serif" font-size="12" lengthAdjust="spacing" textLength="227" x="397" y="920.2692">U.I shows whiteBalance adjusting screen</text><rect fill="#F1F1F1" height="36.3441" rx="12.5" ry="12.5" style="stroke:#181818;stroke-width:0.5;" width="230" x="395.5" y="977.7853"/><text fill="#000000" font-family="sans-serif" font-size="12" lengthAdjust="spacing" textLength="210" x="405.5" y="1000.6133">U.I shows sensors calibration screens</text><polygon fill="#F1F1F1" points="269.5,632.4088,331.5,632.4088,343.5,644.4088,331.5,656.4088,269.5,656.4088,257.5,644.4088,269.5,632.4088" style="stroke:#181818;stroke-width:0.5;"/><text fill="#000000" font-family="sans-serif" font-size="11" lengthAdjust="spacing" textLength="62" x="269.5" y="648.6768">Change ISO</text><text fill="#000000" font-family="sans-serif" font-size="11" lengthAdjust="spacing" textLength="17" x="343.5" y="641.1858">Yes</text><polygon fill="#F1F1F1" points="244,712.7529,357,712.7529,369,724.7529,357,736.7529,244,736.7529,232,724.7529,244,712.7529" style="stroke:#181818;stroke-width:0.5;"/><text fill="#000000" font-family="sans-serif" font-size="11" lengthAdjust="spacing" textLength="113" x="244" y="729.0209">Change Aperture Size</text><text fill="#000000" font-family="sans-serif" font-size="11" lengthAdjust="spacing" textLength="17" x="369" y="721.5299">Yes</text><polygon fill="#F1F1F1" points="242,793.097,359,793.097,371,805.097,359,817.097,242,817.097,230,805.097,242,793.097" style="stroke:#181818;stroke-width:0.5;"/><text fill="#000000" font-family="sans-serif" font-size="11" lengthAdjust="spacing" textLength="117" x="242" y="809.365">Change Shutter Speed</text><text fill="#000000" font-family="sans-serif" font-size="11" lengthAdjust="spacing" textLength="17" x="371" y="801.8741">Yes</text><polygon fill="#F1F1F1" points="244.5,873.4411,356.5,873.4411,368.5,885.4411,356.5,897.4411,244.5,897.4411,232.5,885.4411,244.5,873.4411" style="stroke:#181818;stroke-width:0.5;"/><text fill="#000000" font-family="sans-serif" font-size="11" lengthAdjust="spacing" textLength="112" x="244.5" y="889.7091">Change whiteBalance</text><text fill="#000000" font-family="sans-serif" font-size="11" lengthAdjust="spacing" textLength="17" x="368.5" y="882.2182">Yes</text><polygon fill="#F1F1F1" points="255.5,953.7853,345.5,953.7853,357.5,965.7853,345.5,977.7853,255.5,977.7853,243.5,965.7853,255.5,953.7853" style="stroke:#181818;stroke-width:0.5;"/><text fill="#000000" font-family="sans-serif" font-size="11" lengthAdjust="spacing" textLength="90" x="255.5" y="970.0532">Calibrate sensors</text><text fill="#000000" font-family="sans-serif" font-size="11" lengthAdjust="spacing" textLength="17" x="357.5" y="962.5623">yes</text><polygon fill="#F1F1F1" points="433,1053.1294,445,1065.1294,433,1077.1294,421,1065.1294,433,1053.1294" style="stroke:#181818;stroke-width:0.5;"/><rect fill="#F1F1F1" height="36.3441" rx="12.5" ry="12.5" style="stroke:#181818;stroke-width:0.5;" width="129" x="368.5" y="1121.1294"/><text fill="#000000" font-family="sans-serif" font-size="12" lengthAdjust="spacing" textLength="109" x="378.5" y="1143.9575">Start Study Capture</text><rect fill="#F1F1F1" height="36.3441" rx="12.5" ry="12.5" style="stroke:#181818;stroke-width:0.5;" width="200" x="333" y="1177.4735"/><text fill="#000000" font-family="sans-serif" font-size="12" lengthAdjust="spacing" textLength="180" x="343" y="1200.3016">Data is backed up into Database</text><polygon fill="#F1F1F1" points="61.5,395.3765,174.5,395.3765,186.5,407.3765,174.5,419.3765,61.5,419.3765,49.5,407.3765,61.5,395.3765" style="stroke:#181818;stroke-width:0.5;"/><text fill="#000000" font-family="sans-serif" font-size="11" lengthAdjust="spacing" textLength="113" x="61.5" y="411.6444">Study Button pressed</text><text fill="#000000" font-family="sans-serif" font-size="11" lengthAdjust="spacing" textLength="17" x="186.5" y="404.1535">yes</text><polygon fill="#F1F1F1" points="32,588.4088,204,588.4088,216,600.4088,204,612.4088,32,612.4088,20,600.4088,32,588.4088" style="stroke:#181818;stroke-width:0.5;"/><text fill="#000000" font-family="sans-serif" font-size="11" lengthAdjust="spacing" textLength="172" x="32" y="604.6768">Menu List Screen button pressed</text><text fill="#000000" font-family="sans-serif" font-size="11" lengthAdjust="spacing" textLength="17" x="216" y="597.1858">yes</text><polygon fill="#F1F1F1" points="55.5,1097.1294,180.5,1097.1294,192.5,1109.1294,180.5,1121.1294,55.5,1121.1294,43.5,1109.1294,55.5,1097.1294" style="stroke:#181818;stroke-width:0.5;"/><text fill="#000000" font-family="sans-serif" font-size="11" lengthAdjust="spacing" textLength="125" x="55.5" y="1113.3973">Capture button pressed</text><text fill="#000000" font-family="sans-serif" font-size="11" lengthAdjust="spacing" textLength="17" x="192.5" y="1105.9064">yes</text><polygon fill="#F1F1F1" points="328,1251.8176,340,1263.8176,328,1275.8176,316,1263.8176,328,1251.8176" style="stroke:#181818;stroke-width:0.5;"/><polygon fill="#F1F1F1" points="328,295.0323,340,307.0323,328,319.0323,316,307.0323,328,295.0323" style="stroke:#181818;stroke-width:0.5;"/><polygon fill="#F1F1F1" points="277.5,1295.8176,378.5,1295.8176,390.5,1307.8176,378.5,1319.8176,277.5,1319.8176,265.5,1307.8176,277.5,1295.8176" style="stroke:#181818;stroke-width:0.5;"/><text fill="#000000" font-family="sans-serif" font-size="11" lengthAdjust="spacing" textLength="101" x="277.5" y="1312.0856">Button not pressed</text><text fill="#000000" font-family="sans-serif" font-size="11" lengthAdjust="spacing" textLength="17" x="390.5" y="1304.5946">yes</text><line style="stroke:#181818;stroke-width:1.0;" x1="328" x2="328" y1="30" y2="50"/><polygon fill="#181818" points="324,40,328,50,332,40,328,44" style="stroke:#181818;stroke-width:1.0;"/><line style="stroke:#181818;stroke-width:1.0;" x1="399.5" x2="399.5" y1="176.6882" y2="196.6882"/><polygon fill="#181818" points="395.5,186.6882,399.5,196.6882,403.5,186.6882,399.5,190.6882" style="stroke:#181818;stroke-width:1.0;"/><line style="stroke:#181818;stroke-width:1.0;" x1="266.5" x2="256.5" y1="118.3441" y2="118.3441"/><line style="stroke:#181818;stroke-width:1.0;" x1="256.5" x2="256.5" y1="118.3441" y2="140.3441"/><polygon fill="#181818" points="252.5,130.3441,256.5,140.3441,260.5,130.3441,256.5,134.3441" style="stroke:#181818;stroke-width:1.0;"/><line style="stroke:#181818;stroke-width:1.0;" x1="389.5" x2="399.5" y1="118.3441" y2="118.3441"/><line style="stroke:#181818;stroke-width:1.0;" x1="399.5" x2="399.5" y1="118.3441" y2="140.3441"/><polygon fill="#181818" points="395.5,130.3441,399.5,140.3441,403.5,130.3441,399.5,134.3441" style="stroke:#181818;stroke-width:1.0;"/><line style="stroke:#181818;stroke-width:1.0;" x1="256.5" x2="256.5" y1="176.6882" y2="223.6882"/><line style="stroke:#181818;stroke-width:1.0;" x1="256.5" x2="328" y1="223.6882" y2="223.6882"/><line style="stroke:#181818;stroke-width:1.0;" x1="328" x2="328" y1="223.6882" y2="238.6882"/><polygon fill="#181818" points="324,228.6882,328,238.6882,332,228.6882,328,232.6882" style="stroke:#181818;stroke-width:1.0;"/><line style="stroke:#181818;stroke-width:1.0;" x1="328" x2="328" y1="86.3441" y2="106.3441"/><polygon fill="#181818" points="324,96.3441,328,106.3441,332,96.3441,328,100.3441" style="stroke:#181818;stroke-width:1.0;"/><line style="stroke:#181818;stroke-width:1.0;" x1="433" x2="433" y1="455.7206" y2="475.7206"/><polygon fill="#181818" points="429,465.7206,433,475.7206,437,465.7206,433,469.7206" style="stroke:#181818;stroke-width:1.0;"/><line style="stroke:#181818;stroke-width:1.0;" x1="433" x2="433" y1="512.0647" y2="532.0647"/><polygon fill="#181818" points="429,522.0647,433,532.0647,437,522.0647,433,526.0647" style="stroke:#181818;stroke-width:1.0;"/><line style="stroke:#181818;stroke-width:1.0;" x1="343.5" x2="510.5" y1="644.4088" y2="644.4088"/><line style="stroke:#181818;stroke-width:1.0;" x1="510.5" x2="510.5" y1="644.4088" y2="656.4088"/><polygon fill="#181818" points="506.5,646.4088,510.5,656.4088,514.5,646.4088,510.5,650.4088" style="stroke:#181818;stroke-width:1.0;"/><line style="stroke:#181818;stroke-width:1.0;" x1="369" x2="510.5" y1="724.7529" y2="724.7529"/><line style="stroke:#181818;stroke-width:1.0;" x1="510.5" x2="510.5" y1="724.7529" y2="736.7529"/><polygon fill="#181818" points="506.5,726.7529,510.5,736.7529,514.5,726.7529,510.5,730.7529" style="stroke:#181818;stroke-width:1.0;"/><line style="stroke:#181818;stroke-width:1.0;" x1="371" x2="510.5" y1="805.097" y2="805.097"/><line style="stroke:#181818;stroke-width:1.0;" x1="510.5" x2="510.5" y1="805.097" y2="817.097"/><polygon fill="#181818" points="506.5,807.097,510.5,817.097,514.5,807.097,510.5,811.097" style="stroke:#181818;stroke-width:1.0;"/><line style="stroke:#181818;stroke-width:1.0;" x1="368.5" x2="510.5" y1="885.4411" y2="885.4411"/><line style="stroke:#181818;stroke-width:1.0;" x1="510.5" x2="510.5" y1="885.4411" y2="897.4411"/><polygon fill="#181818" points="506.5,887.4411,510.5,897.4411,514.5,887.4411,510.5,891.4411" style="stroke:#181818;stroke-width:1.0;"/><line style="stroke:#181818;stroke-width:1.0;" x1="357.5" x2="510.5" y1="965.7853" y2="965.7853"/><line style="stroke:#181818;stroke-width:1.0;" x1="510.5" x2="510.5" y1="965.7853" y2="977.7853"/><polygon fill="#181818" points="506.5,967.7853,510.5,977.7853,514.5,967.7853,510.5,971.7853" style="stroke:#181818;stroke-width:1.0;"/><line style="stroke:#181818;stroke-width:1.0;" x1="300.5" x2="300.5" y1="656.4088" y2="712.7529"/><polygon fill="#181818" points="296.5,702.7529,300.5,712.7529,304.5,702.7529,300.5,706.7529" style="stroke:#181818;stroke-width:1.0;"/><text fill="#000000" font-family="sans-serif" font-size="11" lengthAdjust="spacing" textLength="14" x="300.5" y="683.8488">no</text><line style="stroke:#181818;stroke-width:1.0;" x1="300.5" x2="300.5" y1="736.7529" y2="793.097"/><polygon fill="#181818" points="296.5,783.097,300.5,793.097,304.5,783.097,300.5,787.097" style="stroke:#181818;stroke-width:1.0;"/><text fill="#000000" font-family="sans-serif" font-size="11" lengthAdjust="spacing" textLength="14" x="300.5" y="764.1929">no</text><line style="stroke:#181818;stroke-width:1.0;" x1="300.5" x2="300.5" y1="817.097" y2="873.4411"/><polygon fill="#181818" points="296.5,863.4411,300.5,873.4411,304.5,863.4411,300.5,867.4411" style="stroke:#181818;stroke-width:1.0;"/><text fill="#000000" font-family="sans-serif" font-size="11" lengthAdjust="spacing" textLength="14" x="300.5" y="844.5371">no</text><line style="stroke:#181818;stroke-width:1.0;" x1="300.5" x2="300.5" y1="897.4411" y2="953.7853"/><polygon fill="#181818" points="296.5,943.7853,300.5,953.7853,304.5,943.7853,300.5,947.7853" style="stroke:#181818;stroke-width:1.0;"/><text fill="#000000" font-family="sans-serif" font-size="11" lengthAdjust="spacing" textLength="14" x="300.5" y="924.8812">no</text><line style="stroke:#181818;stroke-width:1.0;" x1="510.5" x2="510.5" y1="692.7529" y2="707.7529"/><line style="stroke:#181818;stroke-width:1.0;" x1="510.5" x2="636" y1="707.7529" y2="707.7529"/><line style="stroke:#181818;stroke-width:1.0;" x1="636" x2="636" y1="707.7529" y2="1065.1294"/><line style="stroke:#181818;stroke-width:1.0;" x1="636" x2="445" y1="1065.1294" y2="1065.1294"/><polygon fill="#181818" points="455,1061.1294,445,1065.1294,455,1069.1294,451,1065.1294" style="stroke:#181818;stroke-width:1.0;"/><line style="stroke:#181818;stroke-width:1.0;" x1="510.5" x2="510.5" y1="773.097" y2="788.097"/><line style="stroke:#181818;stroke-width:1.0;" x1="510.5" x2="636" y1="788.097" y2="788.097"/><polygon fill="#181818" points="626,784.097,636,788.097,626,792.097,630,788.097" style="stroke:#181818;stroke-width:1.0;"/><line style="stroke:#181818;stroke-width:1.0;" x1="510.5" x2="510.5" y1="853.4411" y2="868.4411"/><line style="stroke:#181818;stroke-width:1.0;" x1="510.5" x2="636" y1="868.4411" y2="868.4411"/><polygon fill="#181818" points="626,864.4411,636,868.4411,626,872.4411,630,868.4411" style="stroke:#181818;stroke-width:1.0;"/><line style="stroke:#181818;stroke-width:1.0;" x1="510.5" x2="510.5" y1="933.7853" y2="948.7853"/><line style="stroke:#181818;stroke-width:1.0;" x1="510.5" x2="636" y1="948.7853" y2="948.7853"/><polygon fill="#181818" points="626,944.7853,636,948.7853,626,952.7853,630,948.7853" style="stroke:#181818;stroke-width:1.0;"/><line style="stroke:#181818;stroke-width:1.0;" x1="510.5" x2="510.5" y1="1014.1294" y2="1029.1294"/><line style="stroke:#181818;stroke-width:1.0;" x1="510.5" x2="636" y1="1029.1294" y2="1029.1294"/><polygon fill="#181818" points="626,1025.1294,636,1029.1294,626,1033.1294,630,1029.1294" style="stroke:#181818;stroke-width:1.0;"/><line style="stroke:#181818;stroke-width:1.0;" x1="216" x2="300.5" y1="600.4088" y2="600.4088"/><line style="stroke:#181818;stroke-width:1.0;" x1="300.5" x2="300.5" y1="600.4088" y2="632.4088"/><polygon fill="#181818" points="296.5,622.4088,300.5,632.4088,304.5,622.4088,300.5,626.4088" style="stroke:#181818;stroke-width:1.0;"/><line style="stroke:#181818;stroke-width:1.0;" x1="300.5" x2="300.5" y1="977.7853" y2="1019.1294"/><line style="stroke:#181818;stroke-width:1.0;" x1="300.5" x2="433" y1="1019.1294" y2="1019.1294"/><line style="stroke:#181818;stroke-width:1.0;" x1="433" x2="433" y1="1019.1294" y2="1053.1294"/><polygon fill="#181818" points="429,1043.1294,433,1053.1294,437,1043.1294,433,1047.1294" style="stroke:#181818;stroke-width:1.0;"/><text fill="#000000" font-family="sans-serif" font-size="11" lengthAdjust="spacing" textLength="14" x="300.5" y="1025.2253">no</text><line style="stroke:#181818;stroke-width:1.0;" x1="433" x2="433" y1="1157.4735" y2="1177.4735"/><polygon fill="#181818" points="429,1167.4735,433,1177.4735,437,1167.4735,433,1171.4735" style="stroke:#181818;stroke-width:1.0;"/><line style="stroke:#181818;stroke-width:1.0;" x1="186.5" x2="433" y1="407.3765" y2="407.3765"/><line style="stroke:#181818;stroke-width:1.0;" x1="433" x2="433" y1="407.3765" y2="419.3765"/><polygon fill="#181818" points="429,409.3765,433,419.3765,437,409.3765,433,413.3765" style="stroke:#181818;stroke-width:1.0;"/><line style="stroke:#181818;stroke-width:1.0;" x1="192.5" x2="433" y1="1109.1294" y2="1109.1294"/><line style="stroke:#181818;stroke-width:1.0;" x1="433" x2="433" y1="1109.1294" y2="1121.1294"/><polygon fill="#181818" points="429,1111.1294,433,1121.1294,437,1111.1294,433,1115.1294" style="stroke:#181818;stroke-width:1.0;"/><line style="stroke:#181818;stroke-width:1.0;" x1="118" x2="118" y1="419.3765" y2="588.4088"/><polygon fill="#181818" points="114,578.4088,118,588.4088,122,578.4088,118,582.4088" style="stroke:#181818;stroke-width:1.0;"/><text fill="#000000" font-family="sans-serif" font-size="11" lengthAdjust="spacing" textLength="14" x="118" y="503.1606">no</text><line style="stroke:#181818;stroke-width:1.0;" x1="118" x2="118" y1="612.4088" y2="1097.1294"/><polygon fill="#181818" points="114,1087.1294,118,1097.1294,122,1087.1294,118,1091.1294" style="stroke:#181818;stroke-width:1.0;"/><text fill="#000000" font-family="sans-serif" font-size="11" lengthAdjust="spacing" textLength="14" x="118" y="859.5371">no</text><line style="stroke:#181818;stroke-width:1.0;" x1="433" x2="433" y1="568.4088" y2="583.4088"/><line style="stroke:#181818;stroke-width:1.0;" x1="433" x2="636" y1="583.4088" y2="583.4088"/><line style="stroke:#181818;stroke-width:1.0;" x1="636" x2="636" y1="583.4088" y2="1263.8176"/><line style="stroke:#181818;stroke-width:1.0;" x1="636" x2="340" y1="1263.8176" y2="1263.8176"/><polygon fill="#181818" points="350,1259.8176,340,1263.8176,350,1267.8176,346,1263.8176" style="stroke:#181818;stroke-width:1.0;"/><line style="stroke:#181818;stroke-width:1.0;" x1="433" x2="433" y1="1077.1294" y2="1092.1294"/><line style="stroke:#181818;stroke-width:1.0;" x1="433" x2="636" y1="1092.1294" y2="1092.1294"/><polygon fill="#181818" points="626,1088.1294,636,1092.1294,626,1096.1294,630,1092.1294" style="stroke:#181818;stroke-width:1.0;"/><line style="stroke:#181818;stroke-width:1.0;" x1="433" x2="433" y1="1213.8176" y2="1227.8176"/><line style="stroke:#181818;stroke-width:1.0;" x1="433" x2="636" y1="1227.8176" y2="1227.8176"/><polygon fill="#181818" points="626,1223.8176,636,1227.8176,626,1231.8176,630,1227.8176" style="stroke:#181818;stroke-width:1.0;"/><line style="stroke:#181818;stroke-width:1.0;" x1="328" x2="328" y1="375.3765" y2="380.3765"/><line style="stroke:#181818;stroke-width:1.0;" x1="328" x2="118" y1="380.3765" y2="380.3765"/><line style="stroke:#181818;stroke-width:1.0;" x1="118" x2="118" y1="380.3765" y2="395.3765"/><polygon fill="#181818" points="114,385.3765,118,395.3765,122,385.3765,118,389.3765" style="stroke:#181818;stroke-width:1.0;"/><line style="stroke:#181818;stroke-width:1.0;" x1="118" x2="118" y1="1121.1294" y2="1218.8176"/><line style="stroke:#181818;stroke-width:1.0;" x1="118" x2="328" y1="1218.8176" y2="1218.8176"/><line style="stroke:#181818;stroke-width:1.0;" x1="328" x2="328" y1="1218.8176" y2="1251.8176"/><polygon fill="#181818" points="324,1241.8176,328,1251.8176,332,1241.8176,328,1245.8176" style="stroke:#181818;stroke-width:1.0;"/><text fill="#000000" font-family="sans-serif" font-size="11" lengthAdjust="spacing" textLength="14" x="118" y="1189.2415">no</text><line style="stroke:#181818;stroke-width:1.0;" x1="328" x2="328" y1="319.0323" y2="339.0323"/><polygon fill="#181818" points="324,329.0323,328,339.0323,332,329.0323,328,333.0323" style="stroke:#181818;stroke-width:1.0;"/><line style="stroke:#181818;stroke-width:1.0;" x1="390.5" x2="648" y1="1307.8176" y2="1307.8176"/><polygon fill="#181818" points="644,803.925,648,793.925,652,803.925,648,799.925" style="stroke:#181818;stroke-width:1.0;"/><line style="stroke:#181818;stroke-width:1.0;" x1="648" x2="648" y1="307.0323" y2="1307.8176"/><line style="stroke:#181818;stroke-width:1.0;" x1="648" x2="340" y1="307.0323" y2="307.0323"/><polygon fill="#181818" points="350,303.0323,340,307.0323,350,311.0323,346,307.0323" style="stroke:#181818;stroke-width:1.0;"/><line style="stroke:#181818;stroke-width:1.0;" x1="328" x2="328" y1="1275.8176" y2="1295.8176"/><polygon fill="#181818" points="324,1285.8176,328,1295.8176,332,1285.8176,328,1289.8176" style="stroke:#181818;stroke-width:1.0;"/><line style="stroke:#181818;stroke-width:1.0;" x1="328" x2="328" y1="275.0323" y2="295.0323"/><polygon fill="#181818" points="324,285.0323,328,295.0323,332,285.0323,328,289.0323" style="stroke:#181818;stroke-width:1.0;"/><!--SRC=[ZLHBRzf04BxlhvZUp044D7t8N1eUhQ3Ge3XGzJZOOzZMx5hx095Vtrd02Kw2b9EbdM-_nyoiFvG6rri4Rsb9niaKYt4EMWdhq3WH9-7Jz6LFo3mQIbmhRHa5zzexgQW1RaCAebyQHiPeOniY7cZ59K-mbsu3jsLPCAkJMlK45POWUa8c6-yolUU2TReKf3APYtZH6aEXCRCmDxIJj8SaDKICCbGI1bCRlNzLP7-9yza1-juvhQ0qP2rbbSC3iI8SoIrVjt02putEPK6GK45fCFd41_7fh0xirJYcSaT1w6X4vv3YbWnQG9M19MKv9aYLQxCzDm14f7G3GXza3j6Cb6SIwywgiBhkdVCDDgZM1EFahghyUPcAQu3PNyz3KckmLPOBrOhbjkHvUyFHvIDTvQkXtiaSnkh8G5BISuPNp3NKEvdt6-ceZmMgzBhbIz0RlBK13B2GAuEEgd7LMdv1MaqpFLy8ct9YjDLQCw-0qmxNh6DvRE3BqKfRgHpVs7dDpkYmPaDq650hJFznXtp9g-GqXECLMhgKFQcUdaV8pmiTdP-1qkuDpMzyms-5c7ENt68sXHqP6p9rMjrszsEhquv-i-R45z3fGgSJVxg9srzWD7o0K6-8wCTy2bPxmptEU86Dv7nCq10Jt27SU_u7R2c6kvBKPFYpEe2HsacZrPQK4vFbx1dm-QRPbzm5Ccm5bZCnf1nzuVX6gZCUO0oBX-_DhsBAc-1npToan40phpbmBVaF]--></g></svg>